<?xml version="1.0" encoding="utf-8" standalone="no"?>
<!DOCTYPE svg PUBLIC "-//W3C//DTD SVG 1.1//EN"
  "http://www.w3.org/Graphics/SVG/1.1/DTD/svg11.dtd">
<!-- Created with matplotlib (http://matplotlib.org/) -->
<svg height="277pt" version="1.1" viewBox="0 0 311 277" width="311pt" xmlns="http://www.w3.org/2000/svg" xmlns:xlink="http://www.w3.org/1999/xlink">
 <defs>
  <style type="text/css">
*{stroke-linecap:butt;stroke-linejoin:round;}
  </style>
 </defs>
 <g id="figure_1">
  <g id="patch_1">
   <path d="
M0 277.149
L311.597 277.149
L311.597 0
L0 0
z
" style="fill:#ffffff;"/>
  </g>
  <g id="axes_1">
   <g id="patch_2">
    <path d="
M19.7482 269.615
L298.208 269.615
L298.208 7.53472
L19.7482 7.53472
z
" style="fill:#ffffff;"/>
   </g>
   <g id="patch_3">
    <path clip-path="url(#pc0b3686430)" d="
M53.9656 126.15
Q72.5277 108.793 92.7231 89.9093" style="fill:none;stroke:#008080;stroke-linecap:round;stroke-width:2.0;"/>
    <path clip-path="url(#pc0b3686430)" d="
M64.6848 122.972
L53.9656 126.15
L57.8548 115.668
L64.6848 122.972
z
" style="fill:#008080;stroke:#008080;stroke-linecap:round;stroke-width:2.0;"/>
   </g>
   <g id="patch_4">
    <path clip-path="url(#pc0b3686430)" d="
M177.057 249.87
Q223.093 227.92 271.147 205.007" style="fill:none;stroke:#d3d3d3;stroke-linecap:round;stroke-width:2.0;"/>
    <path clip-path="url(#pc0b3686430)" d="
M188.236 250.08
L177.057 249.87
L183.932 241.053
L188.236 250.08
z
" style="fill:#d3d3d3;stroke:#d3d3d3;stroke-linecap:round;stroke-width:2.0;"/>
   </g>
   <g id="patch_5">
    <path clip-path="url(#pc0b3686430)" d="
M187.284 187.438
Q161.047 168.357 133.001 147.96" style="fill:none;stroke:#008080;stroke-linecap:round;stroke-width:2.0;"/>
    <path clip-path="url(#pc0b3686430)" d="
M182.137 177.513
L187.284 187.438
L176.255 185.6
L182.137 177.513
z
" style="fill:#008080;stroke:#008080;stroke-linecap:round;stroke-width:2.0;"/>
   </g>
   <g id="patch_6">
    <path clip-path="url(#pc0b3686430)" d="
M171.009 242.759
Q181.314 227.922 192.893 211.247" style="fill:none;stroke:#d3d3d3;stroke-linecap:round;stroke-width:2.0;"/>
    <path clip-path="url(#pc0b3686430)" d="
M180.82 237.398
L171.009 242.759
L172.607 231.694
L180.82 237.398
z
" style="fill:#d3d3d3;stroke:#d3d3d3;stroke-linecap:round;stroke-width:2.0;"/>
   </g>
   <g id="patch_7">
    <path clip-path="url(#pc0b3686430)" d="
M150.396 242.66
Q140.364 227.919 129.074 211.33" style="fill:none;stroke:#d3d3d3;stroke-linecap:round;stroke-width:2.0;"/>
    <path clip-path="url(#pc0b3686430)" d="
M148.903 231.58
L150.396 242.66
L140.636 237.206
L148.903 231.58
z
" style="fill:#d3d3d3;stroke:#d3d3d3;stroke-linecap:round;stroke-width:2.0;"/>
   </g>
   <g id="patch_8">
    <path clip-path="url(#pc0b3686430)" d="
M47.4565 187.915
Q76.2512 168.356 106.896 147.541" style="fill:none;stroke:#008080;stroke-linecap:round;stroke-width:2.0;"/>
    <path clip-path="url(#pc0b3686430)" d="
M58.538 186.432
L47.4565 187.915
L52.9192 178.16
L58.538 186.432
z
" style="fill:#008080;stroke:#008080;stroke-linecap:round;stroke-width:2.0;"/>
   </g>
   <g id="patch_9">
    <path clip-path="url(#pc0b3686430)" d="
M115.453 120.98
Q112.237 108.792 108.45 94.4424" style="fill:none;stroke:#008080;stroke-linecap:round;stroke-width:2.0;"/>
    <path clip-path="url(#pc0b3686430)" d="
M117.736 110.035
L115.453 120.98
L108.067 112.587
L117.736 110.035
z
" style="fill:#008080;stroke:#008080;stroke-linecap:round;stroke-width:2.0;"/>
   </g>
   <g id="patch_10">
    <path clip-path="url(#pc0b3686430)" d="
M46.8803 204.862
Q96.5203 227.921 144.132 250.037" style="fill:none;stroke:#008080;stroke-linecap:round;stroke-width:2.0;"/>
    <path clip-path="url(#pc0b3686430)" d="
M137.169 241.29
L144.132 250.037
L132.957 250.359
L137.169 241.29
z
" style="fill:#008080;stroke:#008080;stroke-linecap:round;stroke-width:2.0;"/>
   </g>
   <g id="patch_11">
    <path clip-path="url(#pc0b3686430)" d="
M120.096 179.946
Q120.096 168.357 120.096 154.531" style="fill:none;stroke:#008080;stroke-linecap:round;stroke-width:2.0;"/>
    <path clip-path="url(#pc0b3686430)" d="
M125.096 169.946
L120.096 179.946
L115.096 169.946
L125.096 169.946
z
" style="fill:#008080;stroke:#008080;stroke-linecap:round;stroke-width:2.0;"/>
   </g>
   <g id="patch_12">
    <path clip-path="url(#pc0b3686430)" d="
M268.433 191.976
Q202.825 168.357 135.114 143.981" style="fill:none;stroke:#008080;stroke-linecap:round;stroke-width:2.0;"/>
    <path clip-path="url(#pc0b3686430)" d="
M260.718 183.884
L268.433 191.976
L257.331 193.293
L260.718 183.884
z
" style="fill:#008080;stroke:#008080;stroke-linecap:round;stroke-width:2.0;"/>
   </g>
   <g id="patch_13">
    <path clip-path="url(#pc0b3686430)" d="
M79.7138 33.4768
Q88.2456 49.2278 95.7124 63.0128" style="fill:none;stroke:#008080;stroke-linecap:round;stroke-width:2.0;"/>
    <path clip-path="url(#pc0b3686430)" d="
M95.3461 51.8384
L95.7124 63.0128
L86.5532 56.6013
L95.3461 51.8384
z
" style="fill:#008080;stroke:#008080;stroke-linecap:round;stroke-width:2.0;"/>
   </g>
   <g id="patch_14">
    <path clip-path="url(#pc0b3686430)" d="
M49.1685 62.9243
Q56.3954 49.2311 64.6661 33.5604" style="fill:none;stroke:#008080;stroke-linecap:round;stroke-width:2.0;"/>
    <path clip-path="url(#pc0b3686430)" d="
M58.258 56.4142
L49.1685 62.9243
L49.4141 51.7466
L58.258 56.4142
z
" style="fill:#008080;stroke:#008080;stroke-linecap:round;stroke-width:2.0;"/>
   </g>
   <g id="patch_15">
    <path clip-path="url(#pc0b3686430)" d="
M40.6782 120.383
Q40.6782 108.793 40.6782 94.9673" style="fill:none;stroke:#008080;stroke-linecap:round;stroke-width:2.0;"/>
    <path clip-path="url(#pc0b3686430)" d="
M45.6782 110.383
L40.6782 120.383
L35.6782 110.383
L45.6782 110.383
z
" style="fill:#008080;stroke:#008080;stroke-linecap:round;stroke-width:2.0;"/>
   </g>
   <g id="patch_16">
    <path clip-path="url(#pc0b3686430)" d="
M34.908 180.12
Q36.5418 168.357 38.4832 154.379" style="fill:none;stroke:#008080;stroke-linecap:round;stroke-width:2.0;"/>
    <path clip-path="url(#pc0b3686430)" d="
M41.2361 170.903
L34.908 180.12
L31.3312 169.527
L41.2361 170.903
z
" style="fill:#008080;stroke:#008080;stroke-linecap:round;stroke-width:2.0;"/>
   </g>
   <g id="matplotlib.axis_1"/>
   <g id="matplotlib.axis_2"/>
   <g id="PathCollection_1">
    <defs>
     <path d="
M-7.07107 -12.2474
L-14.1421 -6.28037e-15
L-7.07107 12.2474
L7.07107 12.2474
L14.1421 8.63551e-15
L7.07107 -12.2474
z
" id="C0_0_ff82a26696"/>
    </defs>
    <use style="fill:#ffffff;stroke:#000000;" x="120.096377841" xlink:href="#C0_0_ff82a26696" y="198.138357805"/>
    <use style="fill:#ffffff;stroke:#000000;" x="285.550923295" xlink:href="#C0_0_ff82a26696" y="198.138357805"/>
    <use style="fill:#ffffff;stroke:#000000;" x="201.996377841" xlink:href="#C0_0_ff82a26696" y="198.138357805"/>
    <use style="fill:#90ee90;stroke:#000000;" x="72.1145596591" xlink:href="#C0_0_ff82a26696" y="19.4474487139"/>
    <use style="fill:#90ee90;stroke:#000000;" x="104.378196023" xlink:href="#C0_0_ff82a26696" y="79.0110850776"/>
    <use style="fill:#90ee90;stroke:#000000;" x="40.6781960227" xlink:href="#C0_0_ff82a26696" y="79.0110850776"/>
    <use style="fill:#90ee90;stroke:#000000;" x="120.096377841" xlink:href="#C0_0_ff82a26696" y="138.574721441"/>
    <use style="fill:#90ee90;stroke:#000000;" x="40.6781960227" xlink:href="#C0_0_ff82a26696" y="138.574721441"/>
    <use style="fill:#90ee90;stroke:#000000;" x="32.40546875" xlink:href="#C0_0_ff82a26696" y="198.138357805"/>
    <use style="fill:#90ee90;stroke:#000000;" x="160.632741477" xlink:href="#C0_0_ff82a26696" y="257.701994168"/>
   </g>
   <g id="text_1">
    <!-- .    C12    . -->
    <defs>
     <path d="
M19.1875 8.29688
L53.6094 8.29688
L53.6094 0
L7.32812 0
L7.32812 8.29688
Q12.9375 14.1094 22.625 23.8906
Q32.3281 33.6875 34.8125 36.5312
Q39.5469 41.8438 41.4219 45.5312
Q43.3125 49.2188 43.3125 52.7812
Q43.3125 58.5938 39.2344 62.25
Q35.1562 65.9219 28.6094 65.9219
Q23.9688 65.9219 18.8125 64.3125
Q13.6719 62.7031 7.8125 59.4219
L7.8125 69.3906
Q13.7656 71.7812 18.9375 73
Q24.125 74.2188 28.4219 74.2188
Q39.75 74.2188 46.4844 68.5469
Q53.2188 62.8906 53.2188 53.4219
Q53.2188 48.9219 51.5312 44.8906
Q49.8594 40.875 45.4062 35.4062
Q44.1875 33.9844 37.6406 27.2188
Q31.1094 20.4531 19.1875 8.29688" id="BitstreamVeraSans-Roman-32"/>
     <path id="BitstreamVeraSans-Roman-20"/>
     <path d="
M12.4062 8.29688
L28.5156 8.29688
L28.5156 63.9219
L10.9844 60.4062
L10.9844 69.3906
L28.4219 72.9062
L38.2812 72.9062
L38.2812 8.29688
L54.3906 8.29688
L54.3906 0
L12.4062 0
z
" id="BitstreamVeraSans-Roman-31"/>
     <path d="
M10.6875 12.4062
L21 12.4062
L21 0
L10.6875 0
z
" id="BitstreamVeraSans-Roman-2e"/>
     <path d="
M64.4062 67.2812
L64.4062 56.8906
Q59.4219 61.5312 53.7812 63.8125
Q48.1406 66.1094 41.7969 66.1094
Q29.2969 66.1094 22.6562 58.4688
Q16.0156 50.8281 16.0156 36.375
Q16.0156 21.9688 22.6562 14.3281
Q29.2969 6.6875 41.7969 6.6875
Q48.1406 6.6875 53.7812 8.98438
Q59.4219 11.2812 64.4062 15.9219
L64.4062 5.60938
Q59.2344 2.09375 53.4375 0.328125
Q47.6562 -1.42188 41.2188 -1.42188
Q24.6562 -1.42188 15.125 8.70312
Q5.60938 18.8438 5.60938 36.375
Q5.60938 53.9531 15.125 64.0781
Q24.6562 74.2188 41.2188 74.2188
Q47.75 74.2188 53.5312 72.4844
Q59.3281 70.75 64.4062 67.2812" id="BitstreamVeraSans-Roman-43"/>
    </defs>
    <g transform="translate(7.2 200.897732805)scale(0.1 -0.1)">
     <use xlink:href="#BitstreamVeraSans-Roman-2e"/>
     <use x="31.787109375" xlink:href="#BitstreamVeraSans-Roman-20"/>
     <use x="63.57421875" xlink:href="#BitstreamVeraSans-Roman-20"/>
     <use x="95.361328125" xlink:href="#BitstreamVeraSans-Roman-20"/>
     <use x="127.1484375" xlink:href="#BitstreamVeraSans-Roman-20"/>
     <use x="158.935546875" xlink:href="#BitstreamVeraSans-Roman-43"/>
     <use x="228.759765625" xlink:href="#BitstreamVeraSans-Roman-31"/>
     <use x="292.3828125" xlink:href="#BitstreamVeraSans-Roman-32"/>
     <use x="356.005859375" xlink:href="#BitstreamVeraSans-Roman-20"/>
     <use x="387.79296875" xlink:href="#BitstreamVeraSans-Roman-20"/>
     <use x="419.580078125" xlink:href="#BitstreamVeraSans-Roman-20"/>
     <use x="451.3671875" xlink:href="#BitstreamVeraSans-Roman-20"/>
     <use x="483.154296875" xlink:href="#BitstreamVeraSans-Roman-2e"/>
    </g>
   </g>
   <g id="text_2">
    <!-- .    C3 : C8     . -->
    <defs>
     <path d="
M40.5781 39.3125
Q47.6562 37.7969 51.625 33
Q55.6094 28.2188 55.6094 21.1875
Q55.6094 10.4062 48.1875 4.48438
Q40.7656 -1.42188 27.0938 -1.42188
Q22.5156 -1.42188 17.6562 -0.515625
Q12.7969 0.390625 7.625 2.20312
L7.625 11.7188
Q11.7188 9.32812 16.5938 8.10938
Q21.4844 6.89062 26.8125 6.89062
Q36.0781 6.89062 40.9375 10.5469
Q45.7969 14.2031 45.7969 21.1875
Q45.7969 27.6406 41.2812 31.2656
Q36.7656 34.9062 28.7188 34.9062
L20.2188 34.9062
L20.2188 43.0156
L29.1094 43.0156
Q36.375 43.0156 40.2344 45.9219
Q44.0938 48.8281 44.0938 54.2969
Q44.0938 59.9062 40.1094 62.9062
Q36.1406 65.9219 28.7188 65.9219
Q24.6562 65.9219 20.0156 65.0312
Q15.375 64.1562 9.8125 62.3125
L9.8125 71.0938
Q15.4375 72.6562 20.3438 73.4375
Q25.25 74.2188 29.5938 74.2188
Q40.8281 74.2188 47.3594 69.1094
Q53.9062 64.0156 53.9062 55.3281
Q53.9062 49.2656 50.4375 45.0938
Q46.9688 40.9219 40.5781 39.3125" id="BitstreamVeraSans-Roman-33"/>
     <path d="
M31.7812 34.625
Q24.75 34.625 20.7188 30.8594
Q16.7031 27.0938 16.7031 20.5156
Q16.7031 13.9219 20.7188 10.1562
Q24.75 6.39062 31.7812 6.39062
Q38.8125 6.39062 42.8594 10.1719
Q46.9219 13.9688 46.9219 20.5156
Q46.9219 27.0938 42.8906 30.8594
Q38.875 34.625 31.7812 34.625
M21.9219 38.8125
Q15.5781 40.375 12.0312 44.7188
Q8.5 49.0781 8.5 55.3281
Q8.5 64.0625 14.7188 69.1406
Q20.9531 74.2188 31.7812 74.2188
Q42.6719 74.2188 48.875 69.1406
Q55.0781 64.0625 55.0781 55.3281
Q55.0781 49.0781 51.5312 44.7188
Q48 40.375 41.7031 38.8125
Q48.8281 37.1562 52.7969 32.3125
Q56.7812 27.4844 56.7812 20.5156
Q56.7812 9.90625 50.3125 4.23438
Q43.8438 -1.42188 31.7812 -1.42188
Q19.7344 -1.42188 13.25 4.23438
Q6.78125 9.90625 6.78125 20.5156
Q6.78125 27.4844 10.7812 32.3125
Q14.7969 37.1562 21.9219 38.8125
M18.3125 54.3906
Q18.3125 48.7344 21.8438 45.5625
Q25.3906 42.3906 31.7812 42.3906
Q38.1406 42.3906 41.7188 45.5625
Q45.3125 48.7344 45.3125 54.3906
Q45.3125 60.0625 41.7188 63.2344
Q38.1406 66.4062 31.7812 66.4062
Q25.3906 66.4062 21.8438 63.2344
Q18.3125 60.0625 18.3125 54.3906" id="BitstreamVeraSans-Roman-38"/>
     <path d="
M11.7188 12.4062
L22.0156 12.4062
L22.0156 0
L11.7188 0
z

M11.7188 51.7031
L22.0156 51.7031
L22.0156 39.3125
L11.7188 39.3125
z
" id="BitstreamVeraSans-Roman-3a"/>
    </defs>
    <g transform="translate(125.484303977 260.461369168)scale(0.1 -0.1)">
     <use xlink:href="#BitstreamVeraSans-Roman-2e"/>
     <use x="31.787109375" xlink:href="#BitstreamVeraSans-Roman-20"/>
     <use x="63.57421875" xlink:href="#BitstreamVeraSans-Roman-20"/>
     <use x="95.361328125" xlink:href="#BitstreamVeraSans-Roman-20"/>
     <use x="127.1484375" xlink:href="#BitstreamVeraSans-Roman-20"/>
     <use x="158.935546875" xlink:href="#BitstreamVeraSans-Roman-43"/>
     <use x="228.759765625" xlink:href="#BitstreamVeraSans-Roman-33"/>
     <use x="292.3828125" xlink:href="#BitstreamVeraSans-Roman-20"/>
     <use x="324.169921875" xlink:href="#BitstreamVeraSans-Roman-3a"/>
     <use x="357.861328125" xlink:href="#BitstreamVeraSans-Roman-20"/>
     <use x="389.6484375" xlink:href="#BitstreamVeraSans-Roman-43"/>
     <use x="459.47265625" xlink:href="#BitstreamVeraSans-Roman-38"/>
     <use x="523.095703125" xlink:href="#BitstreamVeraSans-Roman-20"/>
     <use x="554.8828125" xlink:href="#BitstreamVeraSans-Roman-20"/>
     <use x="586.669921875" xlink:href="#BitstreamVeraSans-Roman-20"/>
     <use x="618.45703125" xlink:href="#BitstreamVeraSans-Roman-20"/>
     <use x="650.244140625" xlink:href="#BitstreamVeraSans-Roman-20"/>
     <use x="682.03125" xlink:href="#BitstreamVeraSans-Roman-2e"/>
    </g>
   </g>
   <g id="text_3">
    <!-- .   C8    . -->
    <g transform="translate(181.561221591 200.897732805)scale(0.1 -0.1)">
     <use xlink:href="#BitstreamVeraSans-Roman-2e"/>
     <use x="31.787109375" xlink:href="#BitstreamVeraSans-Roman-20"/>
     <use x="63.57421875" xlink:href="#BitstreamVeraSans-Roman-20"/>
     <use x="95.361328125" xlink:href="#BitstreamVeraSans-Roman-20"/>
     <use x="127.1484375" xlink:href="#BitstreamVeraSans-Roman-43"/>
     <use x="196.97265625" xlink:href="#BitstreamVeraSans-Roman-38"/>
     <use x="260.595703125" xlink:href="#BitstreamVeraSans-Roman-20"/>
     <use x="292.3828125" xlink:href="#BitstreamVeraSans-Roman-20"/>
     <use x="324.169921875" xlink:href="#BitstreamVeraSans-Roman-20"/>
     <use x="355.95703125" xlink:href="#BitstreamVeraSans-Roman-20"/>
     <use x="387.744140625" xlink:href="#BitstreamVeraSans-Roman-2e"/>
    </g>
   </g>
   <g id="text_4">
    <!-- .   C8   . -->
    <g transform="translate(266.704829545 200.897732805)scale(0.1 -0.1)">
     <use xlink:href="#BitstreamVeraSans-Roman-2e"/>
     <use x="31.787109375" xlink:href="#BitstreamVeraSans-Roman-20"/>
     <use x="63.57421875" xlink:href="#BitstreamVeraSans-Roman-20"/>
     <use x="95.361328125" xlink:href="#BitstreamVeraSans-Roman-20"/>
     <use x="127.1484375" xlink:href="#BitstreamVeraSans-Roman-43"/>
     <use x="196.97265625" xlink:href="#BitstreamVeraSans-Roman-38"/>
     <use x="260.595703125" xlink:href="#BitstreamVeraSans-Roman-20"/>
     <use x="292.3828125" xlink:href="#BitstreamVeraSans-Roman-20"/>
     <use x="324.169921875" xlink:href="#BitstreamVeraSans-Roman-20"/>
     <use x="355.95703125" xlink:href="#BitstreamVeraSans-Roman-2e"/>
    </g>
   </g>
   <g id="text_5">
    <!-- .  C6  . -->
    <defs>
     <path d="
M33.0156 40.375
Q26.375 40.375 22.4844 35.8281
Q18.6094 31.2969 18.6094 23.3906
Q18.6094 15.5312 22.4844 10.9531
Q26.375 6.39062 33.0156 6.39062
Q39.6562 6.39062 43.5312 10.9531
Q47.4062 15.5312 47.4062 23.3906
Q47.4062 31.2969 43.5312 35.8281
Q39.6562 40.375 33.0156 40.375
M52.5938 71.2969
L52.5938 62.3125
Q48.875 64.0625 45.0938 64.9844
Q41.3125 65.9219 37.5938 65.9219
Q27.8281 65.9219 22.6719 59.3281
Q17.5312 52.7344 16.7969 39.4062
Q19.6719 43.6562 24.0156 45.9219
Q28.375 48.1875 33.5938 48.1875
Q44.5781 48.1875 50.9531 41.5156
Q57.3281 34.8594 57.3281 23.3906
Q57.3281 12.1562 50.6875 5.35938
Q44.0469 -1.42188 33.0156 -1.42188
Q20.3594 -1.42188 13.6719 8.26562
Q6.98438 17.9688 6.98438 36.375
Q6.98438 53.6562 15.1875 63.9375
Q23.3906 74.2188 37.2031 74.2188
Q40.9219 74.2188 44.7031 73.4844
Q48.4844 72.75 52.5938 71.2969" id="BitstreamVeraSans-Roman-36"/>
    </defs>
    <g transform="translate(25.0102272727 141.334096441)scale(0.1 -0.1)">
     <use xlink:href="#BitstreamVeraSans-Roman-2e"/>
     <use x="31.787109375" xlink:href="#BitstreamVeraSans-Roman-20"/>
     <use x="63.57421875" xlink:href="#BitstreamVeraSans-Roman-20"/>
     <use x="95.361328125" xlink:href="#BitstreamVeraSans-Roman-43"/>
     <use x="165.185546875" xlink:href="#BitstreamVeraSans-Roman-36"/>
     <use x="228.80859375" xlink:href="#BitstreamVeraSans-Roman-20"/>
     <use x="260.595703125" xlink:href="#BitstreamVeraSans-Roman-20"/>
     <use x="292.3828125" xlink:href="#BitstreamVeraSans-Roman-2e"/>
    </g>
   </g>
   <g id="text_6">
    <!-- .  C8   . -->
    <g transform="translate(102.839346591 200.897732805)scale(0.1 -0.1)">
     <use xlink:href="#BitstreamVeraSans-Roman-2e"/>
     <use x="31.787109375" xlink:href="#BitstreamVeraSans-Roman-20"/>
     <use x="63.57421875" xlink:href="#BitstreamVeraSans-Roman-20"/>
     <use x="95.361328125" xlink:href="#BitstreamVeraSans-Roman-43"/>
     <use x="165.185546875" xlink:href="#BitstreamVeraSans-Roman-38"/>
     <use x="228.80859375" xlink:href="#BitstreamVeraSans-Roman-20"/>
     <use x="260.595703125" xlink:href="#BitstreamVeraSans-Roman-20"/>
     <use x="292.3828125" xlink:href="#BitstreamVeraSans-Roman-20"/>
     <use x="324.169921875" xlink:href="#BitstreamVeraSans-Roman-2e"/>
    </g>
   </g>
   <g id="text_7">
    <!-- . C3 . -->
    <g transform="translate(28.1883522727 81.7704600776)scale(0.1 -0.1)">
     <use xlink:href="#BitstreamVeraSans-Roman-2e"/>
     <use x="31.787109375" xlink:href="#BitstreamVeraSans-Roman-20"/>
     <use x="63.57421875" xlink:href="#BitstreamVeraSans-Roman-43"/>
     <use x="133.3984375" xlink:href="#BitstreamVeraSans-Roman-33"/>
     <use x="197.021484375" xlink:href="#BitstreamVeraSans-Roman-20"/>
     <use x="228.80859375" xlink:href="#BitstreamVeraSans-Roman-2e"/>
    </g>
   </g>
   <g id="text_8">
    <!-- . C4  . -->
    <defs>
     <path d="
M37.7969 64.3125
L12.8906 25.3906
L37.7969 25.3906
z

M35.2031 72.9062
L47.6094 72.9062
L47.6094 25.3906
L58.0156 25.3906
L58.0156 17.1875
L47.6094 17.1875
L47.6094 0
L37.7969 0
L37.7969 17.1875
L4.89062 17.1875
L4.89062 26.7031
z
" id="BitstreamVeraSans-Roman-34"/>
    </defs>
    <g transform="translate(106.017471591 141.334096441)scale(0.1 -0.1)">
     <use xlink:href="#BitstreamVeraSans-Roman-2e"/>
     <use x="31.787109375" xlink:href="#BitstreamVeraSans-Roman-20"/>
     <use x="63.57421875" xlink:href="#BitstreamVeraSans-Roman-43"/>
     <use x="133.3984375" xlink:href="#BitstreamVeraSans-Roman-34"/>
     <use x="197.021484375" xlink:href="#BitstreamVeraSans-Roman-20"/>
     <use x="228.80859375" xlink:href="#BitstreamVeraSans-Roman-20"/>
     <use x="260.595703125" xlink:href="#BitstreamVeraSans-Roman-2e"/>
    </g>
   </g>
   <g id="text_9">
    <!-- .1. -->
    <g transform="translate(66.8286221591 22.2068237139)scale(0.1 -0.1)">
     <use xlink:href="#BitstreamVeraSans-Roman-2e"/>
     <use x="31.787109375" xlink:href="#BitstreamVeraSans-Roman-31"/>
     <use x="95.41015625" xlink:href="#BitstreamVeraSans-Roman-2e"/>
    </g>
   </g>
   <g id="text_10">
    <!-- .C2 . -->
    <g transform="translate(93.4774147727 81.7704600776)scale(0.1 -0.1)">
     <use xlink:href="#BitstreamVeraSans-Roman-2e"/>
     <use x="31.787109375" xlink:href="#BitstreamVeraSans-Roman-43"/>
     <use x="101.611328125" xlink:href="#BitstreamVeraSans-Roman-32"/>
     <use x="165.234375" xlink:href="#BitstreamVeraSans-Roman-20"/>
     <use x="197.021484375" xlink:href="#BitstreamVeraSans-Roman-2e"/>
    </g>
   </g>
  </g>
 </g>
 <defs>
  <clipPath id="pc0b3686430">
   <rect height="262.08" width="278.46" x="19.7481960227" y="7.53472144119"/>
  </clipPath>
 </defs>
</svg>
