<?xml version="1.0" encoding="utf-8" standalone="no"?>
<!DOCTYPE svg PUBLIC "-//W3C//DTD SVG 1.1//EN"
  "http://www.w3.org/Graphics/SVG/1.1/DTD/svg11.dtd">
<!-- Created with matplotlib (http://matplotlib.org/) -->
<svg height="245pt" version="1.1" viewBox="0 0 427 245" width="427pt" xmlns="http://www.w3.org/2000/svg" xmlns:xlink="http://www.w3.org/1999/xlink">
 <defs>
  <style type="text/css">
*{stroke-linecap:butt;stroke-linejoin:round;}
  </style>
 </defs>
 <g id="figure_1">
  <g id="patch_1">
   <path d="
M0 245.474
L427.612 245.474
L427.612 0
L0 0
z
" style="fill:#ffffff;"/>
  </g>
  <g id="axes_1">
   <g id="patch_2">
    <path d="
M7.58791 236.355
L413.668 236.355
L413.668 9.11852
L7.58791 9.11852
z
" style="fill:#ffffff;"/>
   </g>
   <g id="patch_3">
    <path clip-path="url(#p42ef6eb549)" d="
M64.3927 95.1009
Q123.119 122.737 179.821 149.42" style="fill:none;stroke:#000000;stroke-linecap:round;stroke-width:2.0;"/>
    <path clip-path="url(#p42ef6eb549)" d="
M172.902 140.638
L179.821 149.42
L168.644 149.686
L172.902 140.638
z
" style="stroke:#000000;stroke-linecap:round;stroke-width:2.0;"/>
   </g>
   <g id="patch_4">
    <path clip-path="url(#p42ef6eb549)" d="
M196.282 104.265
Q196.282 122.736 196.282 138.97" style="fill:none;stroke:#000000;stroke-linecap:round;stroke-width:2.0;"/>
    <path clip-path="url(#p42ef6eb549)" d="
M201.282 128.97
L196.282 138.97
L191.282 128.97
L201.282 128.97
z
" style="stroke:#000000;stroke-linecap:round;stroke-width:2.0;"/>
   </g>
   <g id="patch_5">
    <path clip-path="url(#p42ef6eb549)" d="
M44.7211 103.383
Q38.0012 122.736 32.0148 139.977" style="fill:none;stroke:#000000;stroke-linecap:round;stroke-width:2.0;"/>
    <path clip-path="url(#p42ef6eb549)" d="
M40.0183 132.17
L32.0148 139.977
L30.5715 128.89
L40.0183 132.17
z
" style="stroke:#000000;stroke-linecap:round;stroke-width:2.0;"/>
   </g>
   <g id="patch_6">
    <path clip-path="url(#p42ef6eb549)" d="
M196.282 35.4057
Q196.282 53.8763 196.282 70.1108" style="fill:none;stroke:#000000;stroke-linecap:round;stroke-width:2.0;"/>
    <path clip-path="url(#p42ef6eb549)" d="
M201.282 60.1108
L196.282 70.1108
L191.282 60.1108
L201.282 60.1108
z
" style="stroke:#000000;stroke-linecap:round;stroke-width:2.0;"/>
   </g>
   <g id="patch_7">
    <path clip-path="url(#p42ef6eb549)" d="
M210.866 25.9293
Q273.749 53.8772 334.589 80.917" style="fill:none;stroke:#000000;stroke-linecap:round;stroke-width:2.0;"/>
    <path clip-path="url(#p42ef6eb549)" d="
M327.481 72.2866
L334.589 80.917
L323.42 81.4247
L327.481 72.2866
z
" style="stroke:#000000;stroke-linecap:round;stroke-width:2.0;"/>
   </g>
   <g id="patch_8">
    <path clip-path="url(#p42ef6eb549)" d="
M380.133 162.385
Q295.747 191.596 213.474 220.075" style="fill:none;stroke:#000000;stroke-linecap:round;stroke-width:2.0;"/>
    <path clip-path="url(#p42ef6eb549)" d="
M224.559 221.529
L213.474 220.075
L221.288 212.079
L224.559 221.529
z
" style="stroke:#000000;stroke-linecap:round;stroke-width:2.0;"/>
   </g>
   <g id="patch_9">
    <path clip-path="url(#p42ef6eb549)" d="
M273.515 166.869
Q241.233 191.596 210.726 214.963" style="fill:none;stroke:#000000;stroke-linecap:round;stroke-width:2.0;"/>
    <path clip-path="url(#p42ef6eb549)" d="
M221.705 212.851
L210.726 214.963
L215.624 204.913
L221.705 212.851
z
" style="stroke:#000000;stroke-linecap:round;stroke-width:2.0;"/>
   </g>
   <g id="patch_10">
    <path clip-path="url(#p42ef6eb549)" d="
M181.845 26.2414
Q123.119 53.8771 66.4164 80.5608" style="fill:none;stroke:#000000;stroke-linecap:round;stroke-width:2.0;"/>
    <path clip-path="url(#p42ef6eb549)" d="
M77.5935 80.8269
L66.4164 80.5608
L73.3356 71.7787
L77.5935 80.8269
z
" style="stroke:#000000;stroke-linecap:round;stroke-width:2.0;"/>
   </g>
   <g id="patch_11">
    <path clip-path="url(#p42ef6eb549)" d="
M60.9977 99.8291
Q82.9499 122.736 103.355 144.028" style="fill:none;stroke:#000000;stroke-linecap:round;stroke-width:2.0;"/>
    <path clip-path="url(#p42ef6eb549)" d="
M100.046 133.349
L103.355 144.028
L92.8259 140.268
L100.046 133.349
z
" style="stroke:#000000;stroke-linecap:round;stroke-width:2.0;"/>
   </g>
   <g id="patch_12">
    <path clip-path="url(#p42ef6eb549)" d="
M40.8394 163.15
Q111.164 191.596 179.416 219.204" style="fill:none;stroke:#000000;stroke-linecap:round;stroke-width:2.0;"/>
    <path clip-path="url(#p42ef6eb549)" d="
M172.02 210.819
L179.416 219.204
L168.271 220.089
L172.02 210.819
z
" style="stroke:#000000;stroke-linecap:round;stroke-width:2.0;"/>
   </g>
   <g id="patch_13">
    <path clip-path="url(#p42ef6eb549)" d="
M336.632 94.7888
Q273.749 122.737 212.91 149.777" style="fill:none;stroke:#000000;stroke-linecap:round;stroke-width:2.0;"/>
    <path clip-path="url(#p42ef6eb549)" d="
M224.078 150.284
L212.91 149.777
L220.017 141.146
L224.078 150.284
z
" style="stroke:#000000;stroke-linecap:round;stroke-width:2.0;"/>
   </g>
   <g id="patch_14">
    <path clip-path="url(#p42ef6eb549)" d="
M128.06 167.55
Q156.113 191.596 182.469 214.187" style="fill:none;stroke:#000000;stroke-linecap:round;stroke-width:2.0;"/>
    <path clip-path="url(#p42ef6eb549)" d="
M178.131 203.882
L182.469 214.187
L171.623 211.475
L178.131 203.882
z
" style="stroke:#000000;stroke-linecap:round;stroke-width:2.0;"/>
   </g>
   <g id="patch_15">
    <path clip-path="url(#p42ef6eb549)" d="
M340.259 99.909
Q318.698 122.738 298.672 143.942" style="fill:none;stroke:#000000;stroke-linecap:round;stroke-width:2.0;"/>
    <path clip-path="url(#p42ef6eb549)" d="
M309.173 140.105
L298.672 143.942
L301.903 133.239
L309.173 140.105
z
" style="stroke:#000000;stroke-linecap:round;stroke-width:2.0;"/>
   </g>
   <g id="patch_16">
    <path clip-path="url(#p42ef6eb549)" d="
M196.282 173.125
Q196.282 191.595 196.282 207.83" style="fill:none;stroke:#000000;stroke-linecap:round;stroke-width:2.0;"/>
    <path clip-path="url(#p42ef6eb549)" d="
M201.282 197.83
L196.282 207.83
L191.282 197.83
L201.282 197.83
z
" style="stroke:#000000;stroke-linecap:round;stroke-width:2.0;"/>
   </g>
   <g id="patch_17">
    <path clip-path="url(#p42ef6eb549)" d="
M359.806 101.752
Q373.213 122.737 385.416 141.838" style="fill:none;stroke:#000000;stroke-linecap:round;stroke-width:2.0;"/>
    <path clip-path="url(#p42ef6eb549)" d="
M384.246 130.719
L385.416 141.838
L375.819 136.103
L384.246 130.719
z
" style="stroke:#000000;stroke-linecap:round;stroke-width:2.0;"/>
   </g>
   <g id="matplotlib.axis_1"/>
   <g id="matplotlib.axis_2"/>
   <g id="PathCollection_1">
    <defs>
     <path d="
M-7.07107 -12.2474
L-14.1421 -6.28037e-15
L-7.07107 12.2474
L7.07107 12.2474
L14.1421 8.63551e-15
L7.07107 -12.2474
z
" id="C0_0_ff82a26696"/>
    </defs>
    <use style="fill:#ffc0cb;stroke:#000000;" x="115.946046647" xlink:href="#C0_0_ff82a26696" y="157.166525492"/>
    <use style="fill:#ffc0cb;stroke:#000000;" x="26.04609375" xlink:href="#C0_0_ff82a26696" y="157.166525492"/>
    <use style="fill:#ffc0cb;stroke:#000000;" x="286.182127664" xlink:href="#C0_0_ff82a26696" y="157.166525492"/>
    <use style="fill:#ffc0cb;stroke:#000000;" x="395.209730114" xlink:href="#C0_0_ff82a26696" y="157.166525492"/>
    <use style="fill:#90ee90;stroke:#000000;" x="196.282174767" xlink:href="#C0_0_ff82a26696" y="226.026063881"/>
    <use style="fill:#90ee90;stroke:#000000;" x="196.282174767" xlink:href="#C0_0_ff82a26696" y="157.166525492"/>
    <use style="fill:#90ee90;stroke:#000000;" x="49.9556556907" xlink:href="#C0_0_ff82a26696" y="88.306987103"/>
    <use style="fill:#90ee90;stroke:#000000;" x="196.282174767" xlink:href="#C0_0_ff82a26696" y="88.306987103"/>
    <use style="fill:#90ee90;stroke:#000000;" x="351.216136143" xlink:href="#C0_0_ff82a26696" y="88.306987103"/>
    <use style="fill:#90ee90;stroke:#000000;" x="196.282174767" xlink:href="#C0_0_ff82a26696" y="19.4474487139"/>
   </g>
   <g id="text_1">
    <!-- .         D4         . -->
    <defs>
     <path id="BitstreamVeraSans-Roman-20"/>
     <path d="
M19.6719 64.7969
L19.6719 8.10938
L31.5938 8.10938
Q46.6875 8.10938 53.6875 14.9375
Q60.6875 21.7812 60.6875 36.5312
Q60.6875 51.1719 53.6875 57.9844
Q46.6875 64.7969 31.5938 64.7969
z

M9.8125 72.9062
L30.0781 72.9062
Q51.2656 72.9062 61.1719 64.0938
Q71.0938 55.2812 71.0938 36.5312
Q71.0938 17.6719 61.125 8.82812
Q51.1719 0 30.0781 0
L9.8125 0
z
" id="BitstreamVeraSans-Roman-44"/>
     <path d="
M10.6875 12.4062
L21 12.4062
L21 0
L10.6875 0
z
" id="BitstreamVeraSans-Roman-2e"/>
     <path d="
M37.7969 64.3125
L12.8906 25.3906
L37.7969 25.3906
z

M35.2031 72.9062
L47.6094 72.9062
L47.6094 25.3906
L58.0156 25.3906
L58.0156 17.1875
L47.6094 17.1875
L47.6094 0
L37.7969 0
L37.7969 17.1875
L4.89062 17.1875
L4.89062 26.7031
z
" id="BitstreamVeraSans-Roman-34"/>
    </defs>
    <g transform="translate(158.008737267 22.2068237139)scale(0.1 -0.1)">
     <use xlink:href="#BitstreamVeraSans-Roman-2e"/>
     <use x="31.787109375" xlink:href="#BitstreamVeraSans-Roman-20"/>
     <use x="63.57421875" xlink:href="#BitstreamVeraSans-Roman-20"/>
     <use x="95.361328125" xlink:href="#BitstreamVeraSans-Roman-20"/>
     <use x="127.1484375" xlink:href="#BitstreamVeraSans-Roman-20"/>
     <use x="158.935546875" xlink:href="#BitstreamVeraSans-Roman-20"/>
     <use x="190.72265625" xlink:href="#BitstreamVeraSans-Roman-20"/>
     <use x="222.509765625" xlink:href="#BitstreamVeraSans-Roman-20"/>
     <use x="254.296875" xlink:href="#BitstreamVeraSans-Roman-20"/>
     <use x="286.083984375" xlink:href="#BitstreamVeraSans-Roman-20"/>
     <use x="317.87109375" xlink:href="#BitstreamVeraSans-Roman-44"/>
     <use x="394.873046875" xlink:href="#BitstreamVeraSans-Roman-34"/>
     <use x="458.49609375" xlink:href="#BitstreamVeraSans-Roman-20"/>
     <use x="490.283203125" xlink:href="#BitstreamVeraSans-Roman-20"/>
     <use x="522.0703125" xlink:href="#BitstreamVeraSans-Roman-20"/>
     <use x="553.857421875" xlink:href="#BitstreamVeraSans-Roman-20"/>
     <use x="585.64453125" xlink:href="#BitstreamVeraSans-Roman-20"/>
     <use x="617.431640625" xlink:href="#BitstreamVeraSans-Roman-20"/>
     <use x="649.21875" xlink:href="#BitstreamVeraSans-Roman-20"/>
     <use x="681.005859375" xlink:href="#BitstreamVeraSans-Roman-20"/>
     <use x="712.79296875" xlink:href="#BitstreamVeraSans-Roman-20"/>
     <use x="744.580078125" xlink:href="#BitstreamVeraSans-Roman-2e"/>
    </g>
   </g>
   <g id="text_2">
    <!-- .        C2 x C2        . -->
    <defs>
     <path d="
M19.1875 8.29688
L53.6094 8.29688
L53.6094 0
L7.32812 0
L7.32812 8.29688
Q12.9375 14.1094 22.625 23.8906
Q32.3281 33.6875 34.8125 36.5312
Q39.5469 41.8438 41.4219 45.5312
Q43.3125 49.2188 43.3125 52.7812
Q43.3125 58.5938 39.2344 62.25
Q35.1562 65.9219 28.6094 65.9219
Q23.9688 65.9219 18.8125 64.3125
Q13.6719 62.7031 7.8125 59.4219
L7.8125 69.3906
Q13.7656 71.7812 18.9375 73
Q24.125 74.2188 28.4219 74.2188
Q39.75 74.2188 46.4844 68.5469
Q53.2188 62.8906 53.2188 53.4219
Q53.2188 48.9219 51.5312 44.8906
Q49.8594 40.875 45.4062 35.4062
Q44.1875 33.9844 37.6406 27.2188
Q31.1094 20.4531 19.1875 8.29688" id="BitstreamVeraSans-Roman-32"/>
     <path d="
M64.4062 67.2812
L64.4062 56.8906
Q59.4219 61.5312 53.7812 63.8125
Q48.1406 66.1094 41.7969 66.1094
Q29.2969 66.1094 22.6562 58.4688
Q16.0156 50.8281 16.0156 36.375
Q16.0156 21.9688 22.6562 14.3281
Q29.2969 6.6875 41.7969 6.6875
Q48.1406 6.6875 53.7812 8.98438
Q59.4219 11.2812 64.4062 15.9219
L64.4062 5.60938
Q59.2344 2.09375 53.4375 0.328125
Q47.6562 -1.42188 41.2188 -1.42188
Q24.6562 -1.42188 15.125 8.70312
Q5.60938 18.8438 5.60938 36.375
Q5.60938 53.9531 15.125 64.0781
Q24.6562 74.2188 41.2188 74.2188
Q47.75 74.2188 53.5312 72.4844
Q59.3281 70.75 64.4062 67.2812" id="BitstreamVeraSans-Roman-43"/>
     <path d="
M54.8906 54.6875
L35.1094 28.0781
L55.9062 0
L45.3125 0
L29.3906 21.4844
L13.4844 0
L2.875 0
L24.125 28.6094
L4.6875 54.6875
L15.2812 54.6875
L29.7812 35.2031
L44.2812 54.6875
z
" id="BitstreamVeraSans-Roman-78"/>
    </defs>
    <g transform="translate(303.669261143 91.066362103)scale(0.1 -0.1)">
     <use xlink:href="#BitstreamVeraSans-Roman-2e"/>
     <use x="31.787109375" xlink:href="#BitstreamVeraSans-Roman-20"/>
     <use x="63.57421875" xlink:href="#BitstreamVeraSans-Roman-20"/>
     <use x="95.361328125" xlink:href="#BitstreamVeraSans-Roman-20"/>
     <use x="127.1484375" xlink:href="#BitstreamVeraSans-Roman-20"/>
     <use x="158.935546875" xlink:href="#BitstreamVeraSans-Roman-20"/>
     <use x="190.72265625" xlink:href="#BitstreamVeraSans-Roman-20"/>
     <use x="222.509765625" xlink:href="#BitstreamVeraSans-Roman-20"/>
     <use x="254.296875" xlink:href="#BitstreamVeraSans-Roman-20"/>
     <use x="286.083984375" xlink:href="#BitstreamVeraSans-Roman-43"/>
     <use x="355.908203125" xlink:href="#BitstreamVeraSans-Roman-32"/>
     <use x="419.53125" xlink:href="#BitstreamVeraSans-Roman-20"/>
     <use x="451.318359375" xlink:href="#BitstreamVeraSans-Roman-78"/>
     <use x="510.498046875" xlink:href="#BitstreamVeraSans-Roman-20"/>
     <use x="542.28515625" xlink:href="#BitstreamVeraSans-Roman-43"/>
     <use x="612.109375" xlink:href="#BitstreamVeraSans-Roman-32"/>
     <use x="675.732421875" xlink:href="#BitstreamVeraSans-Roman-20"/>
     <use x="707.51953125" xlink:href="#BitstreamVeraSans-Roman-20"/>
     <use x="739.306640625" xlink:href="#BitstreamVeraSans-Roman-20"/>
     <use x="771.09375" xlink:href="#BitstreamVeraSans-Roman-20"/>
     <use x="802.880859375" xlink:href="#BitstreamVeraSans-Roman-20"/>
     <use x="834.66796875" xlink:href="#BitstreamVeraSans-Roman-20"/>
     <use x="866.455078125" xlink:href="#BitstreamVeraSans-Roman-20"/>
     <use x="898.2421875" xlink:href="#BitstreamVeraSans-Roman-20"/>
     <use x="930.029296875" xlink:href="#BitstreamVeraSans-Roman-2e"/>
    </g>
   </g>
   <g id="text_3">
    <!-- .       C4       . -->
    <g transform="translate(164.723581017 91.066362103)scale(0.1 -0.1)">
     <use xlink:href="#BitstreamVeraSans-Roman-2e"/>
     <use x="31.787109375" xlink:href="#BitstreamVeraSans-Roman-20"/>
     <use x="63.57421875" xlink:href="#BitstreamVeraSans-Roman-20"/>
     <use x="95.361328125" xlink:href="#BitstreamVeraSans-Roman-20"/>
     <use x="127.1484375" xlink:href="#BitstreamVeraSans-Roman-20"/>
     <use x="158.935546875" xlink:href="#BitstreamVeraSans-Roman-20"/>
     <use x="190.72265625" xlink:href="#BitstreamVeraSans-Roman-20"/>
     <use x="222.509765625" xlink:href="#BitstreamVeraSans-Roman-20"/>
     <use x="254.296875" xlink:href="#BitstreamVeraSans-Roman-43"/>
     <use x="324.12109375" xlink:href="#BitstreamVeraSans-Roman-34"/>
     <use x="387.744140625" xlink:href="#BitstreamVeraSans-Roman-20"/>
     <use x="419.53125" xlink:href="#BitstreamVeraSans-Roman-20"/>
     <use x="451.318359375" xlink:href="#BitstreamVeraSans-Roman-20"/>
     <use x="483.10546875" xlink:href="#BitstreamVeraSans-Roman-20"/>
     <use x="514.892578125" xlink:href="#BitstreamVeraSans-Roman-20"/>
     <use x="546.6796875" xlink:href="#BitstreamVeraSans-Roman-20"/>
     <use x="578.466796875" xlink:href="#BitstreamVeraSans-Roman-20"/>
     <use x="610.25390625" xlink:href="#BitstreamVeraSans-Roman-2e"/>
    </g>
   </g>
   <g id="text_4">
    <!-- .      C2 x C2      . -->
    <g transform="translate(8.76503069065 91.066362103)scale(0.1 -0.1)">
     <use xlink:href="#BitstreamVeraSans-Roman-2e"/>
     <use x="31.787109375" xlink:href="#BitstreamVeraSans-Roman-20"/>
     <use x="63.57421875" xlink:href="#BitstreamVeraSans-Roman-20"/>
     <use x="95.361328125" xlink:href="#BitstreamVeraSans-Roman-20"/>
     <use x="127.1484375" xlink:href="#BitstreamVeraSans-Roman-20"/>
     <use x="158.935546875" xlink:href="#BitstreamVeraSans-Roman-20"/>
     <use x="190.72265625" xlink:href="#BitstreamVeraSans-Roman-20"/>
     <use x="222.509765625" xlink:href="#BitstreamVeraSans-Roman-43"/>
     <use x="292.333984375" xlink:href="#BitstreamVeraSans-Roman-32"/>
     <use x="355.95703125" xlink:href="#BitstreamVeraSans-Roman-20"/>
     <use x="387.744140625" xlink:href="#BitstreamVeraSans-Roman-78"/>
     <use x="446.923828125" xlink:href="#BitstreamVeraSans-Roman-20"/>
     <use x="478.7109375" xlink:href="#BitstreamVeraSans-Roman-43"/>
     <use x="548.53515625" xlink:href="#BitstreamVeraSans-Roman-32"/>
     <use x="612.158203125" xlink:href="#BitstreamVeraSans-Roman-20"/>
     <use x="643.9453125" xlink:href="#BitstreamVeraSans-Roman-20"/>
     <use x="675.732421875" xlink:href="#BitstreamVeraSans-Roman-20"/>
     <use x="707.51953125" xlink:href="#BitstreamVeraSans-Roman-20"/>
     <use x="739.306640625" xlink:href="#BitstreamVeraSans-Roman-20"/>
     <use x="771.09375" xlink:href="#BitstreamVeraSans-Roman-20"/>
     <use x="802.880859375" xlink:href="#BitstreamVeraSans-Roman-2e"/>
    </g>
   </g>
   <g id="text_5">
    <!-- .     C2     . -->
    <g transform="translate(370.007386364 159.925900492)scale(0.1 -0.1)">
     <use xlink:href="#BitstreamVeraSans-Roman-2e"/>
     <use x="31.787109375" xlink:href="#BitstreamVeraSans-Roman-20"/>
     <use x="63.57421875" xlink:href="#BitstreamVeraSans-Roman-20"/>
     <use x="95.361328125" xlink:href="#BitstreamVeraSans-Roman-20"/>
     <use x="127.1484375" xlink:href="#BitstreamVeraSans-Roman-20"/>
     <use x="158.935546875" xlink:href="#BitstreamVeraSans-Roman-20"/>
     <use x="190.72265625" xlink:href="#BitstreamVeraSans-Roman-43"/>
     <use x="260.546875" xlink:href="#BitstreamVeraSans-Roman-32"/>
     <use x="324.169921875" xlink:href="#BitstreamVeraSans-Roman-20"/>
     <use x="355.95703125" xlink:href="#BitstreamVeraSans-Roman-20"/>
     <use x="387.744140625" xlink:href="#BitstreamVeraSans-Roman-20"/>
     <use x="419.53125" xlink:href="#BitstreamVeraSans-Roman-20"/>
     <use x="451.318359375" xlink:href="#BitstreamVeraSans-Roman-20"/>
     <use x="483.10546875" xlink:href="#BitstreamVeraSans-Roman-2e"/>
    </g>
   </g>
   <g id="text_6">
    <!-- .    C2    . -->
    <g transform="translate(264.157908914 159.925900492)scale(0.1 -0.1)">
     <use xlink:href="#BitstreamVeraSans-Roman-2e"/>
     <use x="31.787109375" xlink:href="#BitstreamVeraSans-Roman-20"/>
     <use x="63.57421875" xlink:href="#BitstreamVeraSans-Roman-20"/>
     <use x="95.361328125" xlink:href="#BitstreamVeraSans-Roman-20"/>
     <use x="127.1484375" xlink:href="#BitstreamVeraSans-Roman-20"/>
     <use x="158.935546875" xlink:href="#BitstreamVeraSans-Roman-43"/>
     <use x="228.759765625" xlink:href="#BitstreamVeraSans-Roman-32"/>
     <use x="292.3828125" xlink:href="#BitstreamVeraSans-Roman-20"/>
     <use x="324.169921875" xlink:href="#BitstreamVeraSans-Roman-20"/>
     <use x="355.95703125" xlink:href="#BitstreamVeraSans-Roman-20"/>
     <use x="387.744140625" xlink:href="#BitstreamVeraSans-Roman-20"/>
     <use x="419.53125" xlink:href="#BitstreamVeraSans-Roman-2e"/>
    </g>
   </g>
   <g id="text_7">
    <!-- .   C2   . -->
    <g transform="translate(7.2 159.925900492)scale(0.1 -0.1)">
     <use xlink:href="#BitstreamVeraSans-Roman-2e"/>
     <use x="31.787109375" xlink:href="#BitstreamVeraSans-Roman-20"/>
     <use x="63.57421875" xlink:href="#BitstreamVeraSans-Roman-20"/>
     <use x="95.361328125" xlink:href="#BitstreamVeraSans-Roman-20"/>
     <use x="127.1484375" xlink:href="#BitstreamVeraSans-Roman-43"/>
     <use x="196.97265625" xlink:href="#BitstreamVeraSans-Roman-32"/>
     <use x="260.595703125" xlink:href="#BitstreamVeraSans-Roman-20"/>
     <use x="292.3828125" xlink:href="#BitstreamVeraSans-Roman-20"/>
     <use x="324.169921875" xlink:href="#BitstreamVeraSans-Roman-20"/>
     <use x="355.95703125" xlink:href="#BitstreamVeraSans-Roman-2e"/>
    </g>
   </g>
   <g id="text_8">
    <!-- .  C2  . -->
    <g transform="translate(100.278077897 159.925900492)scale(0.1 -0.1)">
     <use xlink:href="#BitstreamVeraSans-Roman-2e"/>
     <use x="31.787109375" xlink:href="#BitstreamVeraSans-Roman-20"/>
     <use x="63.57421875" xlink:href="#BitstreamVeraSans-Roman-20"/>
     <use x="95.361328125" xlink:href="#BitstreamVeraSans-Roman-43"/>
     <use x="165.185546875" xlink:href="#BitstreamVeraSans-Roman-32"/>
     <use x="228.80859375" xlink:href="#BitstreamVeraSans-Roman-20"/>
     <use x="260.595703125" xlink:href="#BitstreamVeraSans-Roman-20"/>
     <use x="292.3828125" xlink:href="#BitstreamVeraSans-Roman-2e"/>
    </g>
   </g>
   <g id="text_9">
    <!-- . C2 . -->
    <g transform="translate(183.792331017 159.925900492)scale(0.1 -0.1)">
     <use xlink:href="#BitstreamVeraSans-Roman-2e"/>
     <use x="31.787109375" xlink:href="#BitstreamVeraSans-Roman-20"/>
     <use x="63.57421875" xlink:href="#BitstreamVeraSans-Roman-43"/>
     <use x="133.3984375" xlink:href="#BitstreamVeraSans-Roman-32"/>
     <use x="197.021484375" xlink:href="#BitstreamVeraSans-Roman-20"/>
     <use x="228.80859375" xlink:href="#BitstreamVeraSans-Roman-2e"/>
    </g>
   </g>
   <g id="text_10">
    <!-- .1. -->
    <defs>
     <path d="
M12.4062 8.29688
L28.5156 8.29688
L28.5156 63.9219
L10.9844 60.4062
L10.9844 69.3906
L28.4219 72.9062
L38.2812 72.9062
L38.2812 8.29688
L54.3906 8.29688
L54.3906 0
L12.4062 0
z
" id="BitstreamVeraSans-Roman-31"/>
    </defs>
    <g transform="translate(190.996237267 228.785438881)scale(0.1 -0.1)">
     <use xlink:href="#BitstreamVeraSans-Roman-2e"/>
     <use x="31.787109375" xlink:href="#BitstreamVeraSans-Roman-31"/>
     <use x="95.41015625" xlink:href="#BitstreamVeraSans-Roman-2e"/>
    </g>
   </g>
  </g>
 </g>
 <defs>
  <clipPath id="p42ef6eb549">
   <rect height="227.236476684" width="406.08" x="7.58791193182" y="9.11851795556"/>
  </clipPath>
 </defs>
</svg>
