<?xml version="1.0" encoding="utf-8" standalone="no"?>
<!DOCTYPE svg PUBLIC "-//W3C//DTD SVG 1.1//EN"
  "http://www.w3.org/Graphics/SVG/1.1/DTD/svg11.dtd">
<!-- Created with matplotlib (http://matplotlib.org/) -->
<svg height="277pt" version="1.1" viewBox="0 0 425 277" width="425pt" xmlns="http://www.w3.org/2000/svg" xmlns:xlink="http://www.w3.org/1999/xlink">
 <defs>
  <style type="text/css">
*{stroke-linecap:butt;stroke-linejoin:round;}
  </style>
 </defs>
 <g id="figure_1">
  <g id="patch_1">
   <path d="
M0 277.149
L425.72 277.149
L425.72 0
L0 0
z
" style="fill:#ffffff;"/>
  </g>
  <g id="axes_1">
   <g id="patch_2">
    <path d="
M7.2 269.615
L418.52 269.615
L418.52 7.53472
L7.2 7.53472
z
" style="fill:#ffffff;"/>
   </g>
   <g id="patch_3">
    <path clip-path="url(#p18b2eb5315)" d="
M204.587 160.086
Q204.587 138.574 204.587 114.826" style="fill:none;stroke:#000000;stroke-linecap:round;stroke-width:2.0;"/>
    <path clip-path="url(#p18b2eb5315)" d="
M209.587 150.086
L204.587 160.086
L199.587 150.086
L209.587 150.086
z
" style="stroke:#000000;stroke-linecap:round;stroke-width:2.0;"/>
   </g>
   <g id="patch_4">
    <path clip-path="url(#p18b2eb5315)" d="
M284.464 87.1077
Q251.467 59.1576 216.764 29.7622" style="fill:none;stroke:#000000;stroke-linecap:round;stroke-width:2.0;"/>
    <path clip-path="url(#p18b2eb5315)" d="
M280.065 76.8291
L284.464 87.1077
L273.602 84.4595
L280.065 76.8291
z
" style="stroke:#000000;stroke-linecap:round;stroke-width:2.0;"/>
   </g>
   <g id="patch_5">
    <path clip-path="url(#p18b2eb5315)" d="
M204.587 239.504
Q204.587 217.992 204.587 194.245" style="fill:none;stroke:#000000;stroke-linecap:round;stroke-width:2.0;"/>
    <path clip-path="url(#p18b2eb5315)" d="
M209.587 229.504
L204.587 239.504
L199.587 229.504
L209.587 229.504
z
" style="stroke:#000000;stroke-linecap:round;stroke-width:2.0;"/>
   </g>
   <g id="patch_6">
    <path clip-path="url(#p18b2eb5315)" d="
M129.869 86.6936
Q160.466 59.1564 192.725 30.1234" style="fill:none;stroke:#000000;stroke-linecap:round;stroke-width:2.0;"/>
    <path clip-path="url(#p18b2eb5315)" d="
M140.647 83.7204
L129.869 86.6936
L133.957 76.2875
L140.647 83.7204
z
" style="stroke:#000000;stroke-linecap:round;stroke-width:2.0;"/>
   </g>
   <g id="patch_7">
    <path clip-path="url(#p18b2eb5315)" d="
M188.952 248.398
Q137.855 217.993 84.8362 186.445" style="fill:none;stroke:#000000;stroke-linecap:round;stroke-width:2.0;"/>
    <path clip-path="url(#p18b2eb5315)" d="
M182.915 238.988
L188.952 248.398
L177.801 247.581
L182.915 238.988
z
" style="stroke:#000000;stroke-linecap:round;stroke-width:2.0;"/>
   </g>
   <g id="patch_8">
    <path clip-path="url(#p18b2eb5315)" d="
M327.771 169.256
Q274.079 138.575 218.445 106.784" style="fill:none;stroke:#000000;stroke-linecap:round;stroke-width:2.0;"/>
    <path clip-path="url(#p18b2eb5315)" d="
M321.569 159.954
L327.771 169.256
L316.608 168.636
L321.569 159.954
z
" style="stroke:#000000;stroke-linecap:round;stroke-width:2.0;"/>
   </g>
   <g id="patch_9">
    <path clip-path="url(#p18b2eb5315)" d="
M334.567 162.475
Q320.956 138.574 306.239 112.729" style="fill:none;stroke:#000000;stroke-linecap:round;stroke-width:2.0;"/>
    <path clip-path="url(#p18b2eb5315)" d="
M333.963 151.311
L334.567 162.475
L325.274 156.259
L333.963 151.311
z
" style="stroke:#000000;stroke-linecap:round;stroke-width:2.0;"/>
   </g>
   <g id="patch_10">
    <path clip-path="url(#p18b2eb5315)" d="
M354.086 163.437
Q371.697 138.574 390.601 111.886" style="fill:none;stroke:#000000;stroke-linecap:round;stroke-width:2.0;"/>
    <path clip-path="url(#p18b2eb5315)" d="
M363.946 158.167
L354.086 163.437
L355.786 152.387
L363.946 158.167
z
" style="stroke:#000000;stroke-linecap:round;stroke-width:2.0;"/>
   </g>
   <g id="patch_11">
    <path clip-path="url(#p18b2eb5315)" d="
M86.7563 168.98
Q137.853 138.575 190.872 107.027" style="fill:none;stroke:#000000;stroke-linecap:round;stroke-width:2.0;"/>
    <path clip-path="url(#p18b2eb5315)" d="
M97.9067 168.163
L86.7563 168.98
L92.7931 159.57
L97.9067 168.163
z
" style="stroke:#000000;stroke-linecap:round;stroke-width:2.0;"/>
   </g>
   <g id="patch_12">
    <path clip-path="url(#p18b2eb5315)" d="
M80.1228 162.475
Q93.7334 138.574 108.45 112.729" style="fill:none;stroke:#000000;stroke-linecap:round;stroke-width:2.0;"/>
    <path clip-path="url(#p18b2eb5315)" d="
M89.4162 156.259
L80.1228 162.475
L80.7263 151.311
L89.4162 156.259
z
" style="stroke:#000000;stroke-linecap:round;stroke-width:2.0;"/>
   </g>
   <g id="patch_13">
    <path clip-path="url(#p18b2eb5315)" d="
M62.1184 162.475
Q48.5079 138.574 33.7908 112.729" style="fill:none;stroke:#000000;stroke-linecap:round;stroke-width:2.0;"/>
    <path clip-path="url(#p18b2eb5315)" d="
M61.5149 151.311
L62.1184 162.475
L52.8251 156.259
L61.5149 151.311
z
" style="stroke:#000000;stroke-linecap:round;stroke-width:2.0;"/>
   </g>
   <g id="patch_14">
    <path clip-path="url(#p18b2eb5315)" d="
M329.712 186.202
Q274.079 217.993 220.386 248.674" style="fill:none;stroke:#000000;stroke-linecap:round;stroke-width:2.0;"/>
    <path clip-path="url(#p18b2eb5315)" d="
M231.549 248.054
L220.386 248.674
L226.588 239.371
L231.549 248.054
z
" style="stroke:#000000;stroke-linecap:round;stroke-width:2.0;"/>
   </g>
   <g id="patch_15">
    <path clip-path="url(#p18b2eb5315)" d="
M204.587 35.4096
Q204.587 59.1572 204.587 80.6687" style="fill:none;stroke:#000000;stroke-linecap:round;stroke-width:2.0;"/>
    <path clip-path="url(#p18b2eb5315)" d="
M209.587 70.6687
L204.587 80.6687
L199.587 70.6687
L209.587 70.6687
z
" style="stroke:#000000;stroke-linecap:round;stroke-width:2.0;"/>
   </g>
   <g id="patch_16">
    <path clip-path="url(#p18b2eb5315)" d="
M382.973 92.0112
Q302.208 59.1575 219.371 25.4612" style="fill:none;stroke:#000000;stroke-linecap:round;stroke-width:2.0;"/>
    <path clip-path="url(#p18b2eb5315)" d="
M375.594 83.6118
L382.973 92.0112
L371.826 92.8747
L375.594 83.6118
z
" style="stroke:#000000;stroke-linecap:round;stroke-width:2.0;"/>
   </g>
   <g id="patch_17">
    <path clip-path="url(#p18b2eb5315)" d="
M42.5243 91.4754
Q115.244 59.1558 190.006 25.928" style="fill:none;stroke:#000000;stroke-linecap:round;stroke-width:2.0;"/>
    <path clip-path="url(#p18b2eb5315)" d="
M53.6931 91.9831
L42.5243 91.4754
L49.6318 82.845
L53.6931 91.9831
z
" style="stroke:#000000;stroke-linecap:round;stroke-width:2.0;"/>
   </g>
   <g id="matplotlib.axis_1"/>
   <g id="matplotlib.axis_2"/>
   <g id="PathCollection_1">
    <defs>
     <path d="
M-7.07107 -12.2474
L-14.1421 -6.28037e-15
L-7.07107 12.2474
L7.07107 12.2474
L14.1421 8.63551e-15
L7.07107 -12.2474
z
" id="C0_0_ff82a26696"/>
    </defs>
    <use style="fill:#ffffff;stroke:#000000;" x="25.8963636364" xlink:href="#C0_0_ff82a26696" y="98.8656305321"/>
    <use style="fill:#ffffff;stroke:#000000;" x="204.587272727" xlink:href="#C0_0_ff82a26696" y="178.28381235"/>
    <use style="fill:#ffffff;stroke:#000000;" x="204.587272727" xlink:href="#C0_0_ff82a26696" y="257.701994168"/>
    <use style="fill:#ffffff;stroke:#000000;" x="116.344848485" xlink:href="#C0_0_ff82a26696" y="98.8656305321"/>
    <use style="fill:#ffffff;stroke:#000000;" x="343.569090909" xlink:href="#C0_0_ff82a26696" y="178.28381235"/>
    <use style="fill:#ffffff;stroke:#000000;" x="298.344848485" xlink:href="#C0_0_ff82a26696" y="98.8656305321"/>
    <use style="fill:#ffffff;stroke:#000000;" x="71.1206060606" xlink:href="#C0_0_ff82a26696" y="178.28381235"/>
    <use style="fill:#ffffff;stroke:#000000;" x="204.587272727" xlink:href="#C0_0_ff82a26696" y="98.8656305321"/>
    <use style="fill:#ffffff;stroke:#000000;" x="204.587272727" xlink:href="#C0_0_ff82a26696" y="19.4474487139"/>
    <use style="fill:#ffffff;stroke:#000000;" x="399.823636364" xlink:href="#C0_0_ff82a26696" y="98.8656305321"/>
   </g>
   <g id="text_1">
    <!-- .    C2 x C2    . -->
    <defs>
     <path d="
M19.1875 8.29688
L53.6094 8.29688
L53.6094 0
L7.32812 0
L7.32812 8.29688
Q12.9375 14.1094 22.625 23.8906
Q32.3281 33.6875 34.8125 36.5312
Q39.5469 41.8438 41.4219 45.5312
Q43.3125 49.2188 43.3125 52.7812
Q43.3125 58.5938 39.2344 62.25
Q35.1562 65.9219 28.6094 65.9219
Q23.9688 65.9219 18.8125 64.3125
Q13.6719 62.7031 7.8125 59.4219
L7.8125 69.3906
Q13.7656 71.7812 18.9375 73
Q24.125 74.2188 28.4219 74.2188
Q39.75 74.2188 46.4844 68.5469
Q53.2188 62.8906 53.2188 53.4219
Q53.2188 48.9219 51.5312 44.8906
Q49.8594 40.875 45.4062 35.4062
Q44.1875 33.9844 37.6406 27.2188
Q31.1094 20.4531 19.1875 8.29688" id="BitstreamVeraSans-Roman-32"/>
     <path id="BitstreamVeraSans-Roman-20"/>
     <path d="
M10.6875 12.4062
L21 12.4062
L21 0
L10.6875 0
z
" id="BitstreamVeraSans-Roman-2e"/>
     <path d="
M54.8906 54.6875
L35.1094 28.0781
L55.9062 0
L45.3125 0
L29.3906 21.4844
L13.4844 0
L2.875 0
L24.125 28.6094
L4.6875 54.6875
L15.2812 54.6875
L29.7812 35.2031
L44.2812 54.6875
z
" id="BitstreamVeraSans-Roman-78"/>
     <path d="
M64.4062 67.2812
L64.4062 56.8906
Q59.4219 61.5312 53.7812 63.8125
Q48.1406 66.1094 41.7969 66.1094
Q29.2969 66.1094 22.6562 58.4688
Q16.0156 50.8281 16.0156 36.375
Q16.0156 21.9688 22.6562 14.3281
Q29.2969 6.6875 41.7969 6.6875
Q48.1406 6.6875 53.7812 8.98438
Q59.4219 11.2812 64.4062 15.9219
L64.4062 5.60938
Q59.2344 2.09375 53.4375 0.328125
Q47.6562 -1.42188 41.2188 -1.42188
Q24.6562 -1.42188 15.125 8.70312
Q5.60938 18.8438 5.60938 36.375
Q5.60938 53.9531 15.125 64.0781
Q24.6562 74.2188 41.2188 74.2188
Q47.75 74.2188 53.5312 72.4844
Q59.3281 70.75 64.4062 67.2812" id="BitstreamVeraSans-Roman-43"/>
    </defs>
    <g transform="translate(308.734715909 181.04318735)scale(0.1 -0.1)">
     <use xlink:href="#BitstreamVeraSans-Roman-2e"/>
     <use x="31.787109375" xlink:href="#BitstreamVeraSans-Roman-20"/>
     <use x="63.57421875" xlink:href="#BitstreamVeraSans-Roman-20"/>
     <use x="95.361328125" xlink:href="#BitstreamVeraSans-Roman-20"/>
     <use x="127.1484375" xlink:href="#BitstreamVeraSans-Roman-20"/>
     <use x="158.935546875" xlink:href="#BitstreamVeraSans-Roman-43"/>
     <use x="228.759765625" xlink:href="#BitstreamVeraSans-Roman-32"/>
     <use x="292.3828125" xlink:href="#BitstreamVeraSans-Roman-20"/>
     <use x="324.169921875" xlink:href="#BitstreamVeraSans-Roman-78"/>
     <use x="383.349609375" xlink:href="#BitstreamVeraSans-Roman-20"/>
     <use x="415.13671875" xlink:href="#BitstreamVeraSans-Roman-43"/>
     <use x="484.9609375" xlink:href="#BitstreamVeraSans-Roman-32"/>
     <use x="548.583984375" xlink:href="#BitstreamVeraSans-Roman-20"/>
     <use x="580.37109375" xlink:href="#BitstreamVeraSans-Roman-20"/>
     <use x="612.158203125" xlink:href="#BitstreamVeraSans-Roman-20"/>
     <use x="643.9453125" xlink:href="#BitstreamVeraSans-Roman-20"/>
     <use x="675.732421875" xlink:href="#BitstreamVeraSans-Roman-2e"/>
    </g>
   </g>
   <g id="text_2">
    <!-- .    D4     . -->
    <defs>
     <path d="
M19.6719 64.7969
L19.6719 8.10938
L31.5938 8.10938
Q46.6875 8.10938 53.6875 14.9375
Q60.6875 21.7812 60.6875 36.5312
Q60.6875 51.1719 53.6875 57.9844
Q46.6875 64.7969 31.5938 64.7969
z

M9.8125 72.9062
L30.0781 72.9062
Q51.2656 72.9062 61.1719 64.0938
Q71.0938 55.2812 71.0938 36.5312
Q71.0938 17.6719 61.125 8.82812
Q51.1719 0 30.0781 0
L9.8125 0
z
" id="BitstreamVeraSans-Roman-44"/>
     <path d="
M37.7969 64.3125
L12.8906 25.3906
L37.7969 25.3906
z

M35.2031 72.9062
L47.6094 72.9062
L47.6094 25.3906
L58.0156 25.3906
L58.0156 17.1875
L47.6094 17.1875
L47.6094 0
L37.7969 0
L37.7969 17.1875
L4.89062 17.1875
L4.89062 26.7031
z
" id="BitstreamVeraSans-Roman-34"/>
    </defs>
    <g transform="translate(180.615397727 260.461369168)scale(0.1 -0.1)">
     <use xlink:href="#BitstreamVeraSans-Roman-2e"/>
     <use x="31.787109375" xlink:href="#BitstreamVeraSans-Roman-20"/>
     <use x="63.57421875" xlink:href="#BitstreamVeraSans-Roman-20"/>
     <use x="95.361328125" xlink:href="#BitstreamVeraSans-Roman-20"/>
     <use x="127.1484375" xlink:href="#BitstreamVeraSans-Roman-20"/>
     <use x="158.935546875" xlink:href="#BitstreamVeraSans-Roman-44"/>
     <use x="235.9375" xlink:href="#BitstreamVeraSans-Roman-34"/>
     <use x="299.560546875" xlink:href="#BitstreamVeraSans-Roman-20"/>
     <use x="331.34765625" xlink:href="#BitstreamVeraSans-Roman-20"/>
     <use x="363.134765625" xlink:href="#BitstreamVeraSans-Roman-20"/>
     <use x="394.921875" xlink:href="#BitstreamVeraSans-Roman-20"/>
     <use x="426.708984375" xlink:href="#BitstreamVeraSans-Roman-20"/>
     <use x="458.49609375" xlink:href="#BitstreamVeraSans-Roman-2e"/>
    </g>
   </g>
   <g id="text_3">
    <!-- .   C2 x C2   . -->
    <g transform="translate(39.4643560606 181.04318735)scale(0.1 -0.1)">
     <use xlink:href="#BitstreamVeraSans-Roman-2e"/>
     <use x="31.787109375" xlink:href="#BitstreamVeraSans-Roman-20"/>
     <use x="63.57421875" xlink:href="#BitstreamVeraSans-Roman-20"/>
     <use x="95.361328125" xlink:href="#BitstreamVeraSans-Roman-20"/>
     <use x="127.1484375" xlink:href="#BitstreamVeraSans-Roman-43"/>
     <use x="196.97265625" xlink:href="#BitstreamVeraSans-Roman-32"/>
     <use x="260.595703125" xlink:href="#BitstreamVeraSans-Roman-20"/>
     <use x="292.3828125" xlink:href="#BitstreamVeraSans-Roman-78"/>
     <use x="351.5625" xlink:href="#BitstreamVeraSans-Roman-20"/>
     <use x="383.349609375" xlink:href="#BitstreamVeraSans-Roman-43"/>
     <use x="453.173828125" xlink:href="#BitstreamVeraSans-Roman-32"/>
     <use x="516.796875" xlink:href="#BitstreamVeraSans-Roman-20"/>
     <use x="548.583984375" xlink:href="#BitstreamVeraSans-Roman-20"/>
     <use x="580.37109375" xlink:href="#BitstreamVeraSans-Roman-20"/>
     <use x="612.158203125" xlink:href="#BitstreamVeraSans-Roman-2e"/>
    </g>
   </g>
   <g id="text_4">
    <!-- .   C4    . -->
    <g transform="translate(184.152116477 181.04318735)scale(0.1 -0.1)">
     <use xlink:href="#BitstreamVeraSans-Roman-2e"/>
     <use x="31.787109375" xlink:href="#BitstreamVeraSans-Roman-20"/>
     <use x="63.57421875" xlink:href="#BitstreamVeraSans-Roman-20"/>
     <use x="95.361328125" xlink:href="#BitstreamVeraSans-Roman-20"/>
     <use x="127.1484375" xlink:href="#BitstreamVeraSans-Roman-43"/>
     <use x="196.97265625" xlink:href="#BitstreamVeraSans-Roman-34"/>
     <use x="260.595703125" xlink:href="#BitstreamVeraSans-Roman-20"/>
     <use x="292.3828125" xlink:href="#BitstreamVeraSans-Roman-20"/>
     <use x="324.169921875" xlink:href="#BitstreamVeraSans-Roman-20"/>
     <use x="355.95703125" xlink:href="#BitstreamVeraSans-Roman-20"/>
     <use x="387.744140625" xlink:href="#BitstreamVeraSans-Roman-2e"/>
    </g>
   </g>
   <g id="text_5">
    <!-- .  C2   . -->
    <g transform="translate(281.087817235 101.625005532)scale(0.1 -0.1)">
     <use xlink:href="#BitstreamVeraSans-Roman-2e"/>
     <use x="31.787109375" xlink:href="#BitstreamVeraSans-Roman-20"/>
     <use x="63.57421875" xlink:href="#BitstreamVeraSans-Roman-20"/>
     <use x="95.361328125" xlink:href="#BitstreamVeraSans-Roman-43"/>
     <use x="165.185546875" xlink:href="#BitstreamVeraSans-Roman-32"/>
     <use x="228.80859375" xlink:href="#BitstreamVeraSans-Roman-20"/>
     <use x="260.595703125" xlink:href="#BitstreamVeraSans-Roman-20"/>
     <use x="292.3828125" xlink:href="#BitstreamVeraSans-Roman-20"/>
     <use x="324.169921875" xlink:href="#BitstreamVeraSans-Roman-2e"/>
    </g>
   </g>
   <g id="text_6">
    <!-- .  C2  . -->
    <g transform="translate(384.155667614 101.625005532)scale(0.1 -0.1)">
     <use xlink:href="#BitstreamVeraSans-Roman-2e"/>
     <use x="31.787109375" xlink:href="#BitstreamVeraSans-Roman-20"/>
     <use x="63.57421875" xlink:href="#BitstreamVeraSans-Roman-20"/>
     <use x="95.361328125" xlink:href="#BitstreamVeraSans-Roman-43"/>
     <use x="165.185546875" xlink:href="#BitstreamVeraSans-Roman-32"/>
     <use x="228.80859375" xlink:href="#BitstreamVeraSans-Roman-20"/>
     <use x="260.595703125" xlink:href="#BitstreamVeraSans-Roman-20"/>
     <use x="292.3828125" xlink:href="#BitstreamVeraSans-Roman-2e"/>
    </g>
   </g>
   <g id="text_7">
    <!-- . C2  . -->
    <g transform="translate(102.265942235 101.625005532)scale(0.1 -0.1)">
     <use xlink:href="#BitstreamVeraSans-Roman-2e"/>
     <use x="31.787109375" xlink:href="#BitstreamVeraSans-Roman-20"/>
     <use x="63.57421875" xlink:href="#BitstreamVeraSans-Roman-43"/>
     <use x="133.3984375" xlink:href="#BitstreamVeraSans-Roman-32"/>
     <use x="197.021484375" xlink:href="#BitstreamVeraSans-Roman-20"/>
     <use x="228.80859375" xlink:href="#BitstreamVeraSans-Roman-20"/>
     <use x="260.595703125" xlink:href="#BitstreamVeraSans-Roman-2e"/>
    </g>
   </g>
   <g id="text_8">
    <!-- . C2 . -->
    <g transform="translate(13.4065198864 101.625005532)scale(0.1 -0.1)">
     <use xlink:href="#BitstreamVeraSans-Roman-2e"/>
     <use x="31.787109375" xlink:href="#BitstreamVeraSans-Roman-20"/>
     <use x="63.57421875" xlink:href="#BitstreamVeraSans-Roman-43"/>
     <use x="133.3984375" xlink:href="#BitstreamVeraSans-Roman-32"/>
     <use x="197.021484375" xlink:href="#BitstreamVeraSans-Roman-20"/>
     <use x="228.80859375" xlink:href="#BitstreamVeraSans-Roman-2e"/>
    </g>
   </g>
   <g id="text_9">
    <!-- .1. -->
    <defs>
     <path d="
M12.4062 8.29688
L28.5156 8.29688
L28.5156 63.9219
L10.9844 60.4062
L10.9844 69.3906
L28.4219 72.9062
L38.2812 72.9062
L38.2812 8.29688
L54.3906 8.29688
L54.3906 0
L12.4062 0
z
" id="BitstreamVeraSans-Roman-31"/>
    </defs>
    <g transform="translate(199.301335227 22.2068237139)scale(0.1 -0.1)">
     <use xlink:href="#BitstreamVeraSans-Roman-2e"/>
     <use x="31.787109375" xlink:href="#BitstreamVeraSans-Roman-31"/>
     <use x="95.41015625" xlink:href="#BitstreamVeraSans-Roman-2e"/>
    </g>
   </g>
   <g id="text_10">
    <!-- .C2 . -->
    <g transform="translate(193.686491477 101.625005532)scale(0.1 -0.1)">
     <use xlink:href="#BitstreamVeraSans-Roman-2e"/>
     <use x="31.787109375" xlink:href="#BitstreamVeraSans-Roman-43"/>
     <use x="101.611328125" xlink:href="#BitstreamVeraSans-Roman-32"/>
     <use x="165.234375" xlink:href="#BitstreamVeraSans-Roman-20"/>
     <use x="197.021484375" xlink:href="#BitstreamVeraSans-Roman-2e"/>
    </g>
   </g>
  </g>
 </g>
 <defs>
  <clipPath id="p18b2eb5315">
   <rect height="262.08" width="411.32" x="7.2" y="7.53472144119"/>
  </clipPath>
 </defs>
</svg>
