<?xml version="1.0" encoding="utf-8" standalone="no"?>
<!DOCTYPE svg PUBLIC "-//W3C//DTD SVG 1.1//EN"
  "http://www.w3.org/Graphics/SVG/1.1/DTD/svg11.dtd">
<!-- Created with matplotlib (http://matplotlib.org/) -->
<svg height="276pt" version="1.1" viewBox="0 0 564 276" width="564pt" xmlns="http://www.w3.org/2000/svg" xmlns:xlink="http://www.w3.org/1999/xlink">
 <defs>
  <style type="text/css">
*{stroke-linecap:butt;stroke-linejoin:round;}
  </style>
 </defs>
 <g id="figure_1">
  <g id="patch_1">
   <path d="
M0 276.48
L564.48 276.48
L564.48 0
L0 0
z
" style="fill:#ffffff;"/>
  </g>
  <g id="axes_1">
   <g id="patch_2">
    <path d="
M7.2 269.28
L557.28 269.28
L557.28 7.2
L7.2 7.2
z
" style="fill:#ffffff;"/>
   </g>
   <g id="patch_3">
    <path clip-path="url(#p2b15a58681)" d="
M17.7785 264.24
L55.5587 264.24
L55.5587 264.24
L17.7785 264.24
z
" style="fill:#f5afaf;stroke:#000000;"/>
   </g>
   <g id="patch_4">
    <path clip-path="url(#p2b15a58681)" d="
M93.3389 264.24
L131.119 264.24
L131.119 264.24
L93.3389 264.24
z
" style="fill:#f5afaf;stroke:#000000;"/>
   </g>
   <g id="patch_5">
    <path clip-path="url(#p2b15a58681)" d="
M168.899 264.24
L206.68 264.24
L206.68 264.24
L168.899 264.24
z
" style="fill:#f5afaf;stroke:#000000;"/>
   </g>
   <g id="patch_6">
    <path clip-path="url(#p2b15a58681)" d="
M244.46 264.24
L282.24 264.24
L282.24 138.24
L244.46 138.24
z
" style="fill:#f5afaf;stroke:#000000;"/>
   </g>
   <g id="patch_7">
    <path clip-path="url(#p2b15a58681)" d="
M320.02 264.24
L357.8 264.24
L357.8 264.24
L320.02 264.24
z
" style="fill:#f5afaf;stroke:#000000;"/>
   </g>
   <g id="patch_8">
    <path clip-path="url(#p2b15a58681)" d="
M395.581 264.24
L433.361 264.24
L433.361 150.84
L395.581 150.84
z
" style="fill:#f5afaf;stroke:#000000;"/>
   </g>
   <g id="patch_9">
    <path clip-path="url(#p2b15a58681)" d="
M471.141 264.24
L508.921 264.24
L508.921 264.24
L471.141 264.24
z
" style="fill:#f5afaf;stroke:#000000;"/>
   </g>
   <g id="patch_10">
    <path clip-path="url(#p2b15a58681)" d="
M17.7785 264.24
L55.5587 264.24
L55.5587 264.24
L17.7785 264.24
z
" style="fill:#bcf2bc;stroke:#000000;"/>
   </g>
   <g id="patch_11">
    <path clip-path="url(#p2b15a58681)" d="
M93.3389 264.24
L131.119 264.24
L131.119 264.24
L93.3389 264.24
z
" style="fill:#bcf2bc;stroke:#000000;"/>
   </g>
   <g id="patch_12">
    <path clip-path="url(#p2b15a58681)" d="
M168.899 264.24
L206.68 264.24
L206.68 264.24
L168.899 264.24
z
" style="fill:#bcf2bc;stroke:#000000;"/>
   </g>
   <g id="patch_13">
    <path clip-path="url(#p2b15a58681)" d="
M244.46 264.24
L282.24 264.24
L282.24 138.24
L244.46 138.24
z
" style="fill:#bcf2bc;stroke:#000000;"/>
   </g>
   <g id="patch_14">
    <path clip-path="url(#p2b15a58681)" d="
M320.02 264.24
L357.8 264.24
L357.8 264.24
L320.02 264.24
z
" style="fill:#bcf2bc;stroke:#000000;"/>
   </g>
   <g id="patch_15">
    <path clip-path="url(#p2b15a58681)" d="
M395.581 264.24
L433.361 264.24
L433.361 264.24
L395.581 264.24
z
" style="fill:#bcf2bc;stroke:#000000;"/>
   </g>
   <g id="patch_16">
    <path clip-path="url(#p2b15a58681)" d="
M471.141 264.24
L508.921 264.24
L508.921 264.24
L471.141 264.24
z
" style="fill:#bcf2bc;stroke:#000000;"/>
   </g>
   <g id="matplotlib.axis_1"/>
   <g id="matplotlib.axis_2"/>
  </g>
 </g>
 <defs>
  <clipPath id="p2b15a58681">
   <rect height="262.08" width="550.08" x="7.2" y="7.2"/>
  </clipPath>
 </defs>
</svg>
