<?xml version="1.0" encoding="UTF-8" standalone="no"?>
<!-- Created with Inkscape (http://www.inkscape.org/) -->

<svg
   xmlns:dc="http://purl.org/dc/elements/1.1/"
   xmlns:cc="http://creativecommons.org/ns#"
   xmlns:rdf="http://www.w3.org/1999/02/22-rdf-syntax-ns#"
   xmlns:svg="http://www.w3.org/2000/svg"
   xmlns="http://www.w3.org/2000/svg"
   xmlns:sodipodi="http://sodipodi.sourceforge.net/DTD/sodipodi-0.dtd"
   xmlns:inkscape="http://www.inkscape.org/namespaces/inkscape"
   id="svg2"
   version="1.1"
   inkscape:version="0.48.5 r10040"
   width="508.96875"
   height="508.9375"
   sodipodi:docname="sheaves.svg"
   inkscape:export-filename="C:\Users\LiangZe\OneDrive\Documents\GitHub\sheaves.github.io\images\sheaves.png"
   inkscape:export-xdpi="600"
   inkscape:export-ydpi="600">
  <metadata
     id="metadata8">
    <rdf:RDF>
      <cc:Work
         rdf:about="">
        <dc:format>image/svg+xml</dc:format>
        <dc:type
           rdf:resource="http://purl.org/dc/dcmitype/StillImage" />
      </cc:Work>
    </rdf:RDF>
  </metadata>
  <defs
     id="defs6" />
  <sodipodi:namedview
     pagecolor="#ffffff"
     bordercolor="#666666"
     borderopacity="1"
     objecttolerance="10"
     gridtolerance="10"
     guidetolerance="10"
     inkscape:pageopacity="0"
     inkscape:pageshadow="2"
     inkscape:window-width="1440"
     inkscape:window-height="900"
     id="namedview4"
     showgrid="false"
     inkscape:zoom="0.61458333"
     inkscape:cx="290.0857"
     inkscape:cy="251.85528"
     inkscape:window-x="-8"
     inkscape:window-y="-8"
     inkscape:window-maximized="1"
     inkscape:current-layer="svg2"
     fit-margin-top="0"
     fit-margin-left="0"
     fit-margin-right="0"
     fit-margin-bottom="0"
     borderlayer="true" />
  <path
     style="fill:#307c8c;fill-opacity:1"
     d="m -166.02404,249.66685 0,-384 511.99999,0 511.99999,0 0,384 0,384 -511.99999,0 -511.99999,0 0,-384 z m 300.99439,202.5 c 1.4425,-14.64458 5.5614,-38.43199 10.476,-60.5 4.1771,-18.75664 2.4934,-15.52541 26.0481,-49.98905 13.7766,-20.15691 32.0741,-45.09435 45.2129,-61.61995 5.6006,-7.04429 8.108,-9.24225 15.736,-13.79431 18.1875,-10.85339 61.3757,-30.59669 66.9299,-30.59669 0.8166,0 1.7628,-0.45 2.1027,-1 2.349,-3.80083 -29.2177,6.29899 -54.7278,17.51023 -7.4537,3.27579 -9.5049,3.85891 -8.7747,2.49449 1.8661,-3.48693 36.2471,-38.00483 37.8601,-38.01088 0.9033,-0.003 2.9924,-0.71333 4.6424,-1.57764 1.65,-0.86431 7.725,-3.61685 13.5,-6.11676 5.775,-2.49991 12.5045,-5.44312 14.9544,-6.54048 6.4389,-2.88405 32.0381,-12.03115 42.5456,-15.20237 4.95,-1.49393 9.6269,-2.91591 10.3931,-3.15995 0.7662,-0.24405 1.1414,-0.69544 0.8338,-1.0031 -1.8375,-1.83742 -51.4037,11.89812 -69.2269,19.18377 -4.2827,1.75066 13.6263,-12.18979 30.2092,-23.51496 8.7376,-5.96728 9.9859,-6.48699 24.3772,-10.14867 17.0291,-4.33283 40.8834,-8.59223 53.5896,-9.5689 9.7559,-0.7499 9.2974,-2.31653 -0.676,-2.30971 -10.4705,0.007 -41.6615,3.4651 -51,5.65402 -4.1947,0.98324 24.5241,-17.32949 43.3239,-27.62579 4.3032,-2.35675 8.066,-4.91585 8.3619,-5.68689 0.7035,-1.83321 -1.4513,-4.37641 -3.7079,-4.37641 -1.8517,0 -15.131,4.95118 -25.4779,9.4994 l -6,2.63744 9.6011,-9.81842 c 11.501,-11.76145 13.8989,-14.43674 13.8989,-15.50698 0,-1.35302 -2.0259,-0.90746 -2.593,0.57028 -0.4375,1.14014 -16.1117,15.34677 -25.5064,23.11828 -1.3298,1.1 -4.8889,4.08646 -7.9092,6.63658 -3.0203,2.55012 -9.6699,7.1627 -14.7769,10.25019 -5.107,3.08749 -10.507,6.3782 -12,7.31269 l -2.7145,1.69908 2.1094,-2.44927 c 3.4619,-4.01972 16.9773,-24.12489 19.2658,-28.65943 2.6468,-5.24443 2.6749,-6.09763 0.1248,-3.78984 -1.1,0.99549 -2,2.23806 -2,2.76128 0,1.23995 -10.87,15.23568 -23.1379,29.7913 -6.6222,7.85712 -12.6667,13.77495 -18.896,18.5 -5.0375,3.82108 -10.2407,7.77245 -11.5626,8.78083 -1.3219,1.00837 -2.4035,1.59369 -2.4035,1.30071 0,-0.29299 2.214,-5.22692 4.9199,-10.96429 5.1251,-10.86677 7.349,-16.74978 8.5693,-22.66983 0.9853,-4.77977 -0.6918,-2.79634 -2.9594,3.5 -0.9904,2.75 -6.0211,12.65 -11.1794,22 -8.5601,15.51628 -10.0032,17.54523 -16.5341,23.2471 -3.9355,3.43591 -7.2859,6.11661 -7.4454,5.95711 -0.1595,-0.1595 0.7883,-3.68551 2.1061,-7.83559 2.9576,-9.31347 4.4278,-19.75368 3.4732,-24.66399 l -0.7202,-3.70463 -0.115,3.30259 c -0.1678,4.81896 -3.0258,16.72217 -5.7575,23.97985 -4.562,12.12003 -8.5481,18.58684 -17.3713,28.18181 -25.9822,28.255 -52.8645,64.7078 -80.5489,109.22541 -4.3402,6.97931 -8.0419,12.53908 -8.2259,12.35506 -0.4684,-0.46836 9.859,-37.5171 14.8048,-53.11144 8.4611,-26.67807 21.8329,-62.02823 26.4732,-69.98544 5.1391,-8.81262 37.2086,-36.73674 43.7814,-38.12214 3.4048,-0.71765 4.6182,-2.3257 1.755,-2.3257 -4.6715,0 -19.1506,9.08949 -32.3282,20.29464 -3.1913,2.71363 -5.9676,4.76866 -6.1696,4.56672 -0.2019,-0.20193 1.8633,-5.06546 4.5893,-10.80783 4.8426,-10.20096 5.3287,-10.81107 21.1696,-26.57098 8.9172,-8.87166 21.5006,-20.53011 27.9631,-25.90766 6.4625,-5.37756 11.75,-10.23523 11.75,-10.79482 0,-0.5596 -1.4625,0.0898 -3.25,1.44302 -1.7875,1.35325 -6.625,4.84838 -10.75,7.76694 -4.125,2.91856 -8.8804,6.47726 -10.5676,7.90822 -1.6872,1.43096 -5.2872,4.40161 -8,6.60143 -2.7128,2.19983 -7.3556,6.24983 -10.3172,9 l -5.3848,5.00032 3.3271,-6 c 7.4944,-13.5154 10.9364,-17.62871 45.9086,-54.86103 22.993,-24.479024 28.5168,-30.638974 27.4748,-30.638974 -0.8741,0 -12.5702,10.37797 -25.4027,22.539784 -17.094,16.20074 -22.3913,20.98579 -21.5434,19.46022 3.0583,-5.50244 20.923,-32.011794 26.9539,-39.996584 12.176,-16.12105 14.6889,-20.02624 14.361,-22.31796 -0.8425,-5.88911 -8.0578,-1.2179 -25.595,16.57033 -10.721,10.87454 -21.6322,23.722524 -27.6007,32.499964 -5.1521,7.57684 -4.7729,6.3838 4.3366,-13.642114 6.2716,-13.78708 9.4316,-22.06476 8.702,-22.79442 -0.2986,-0.29852 -2.5226,3.44503 -4.9423,8.319 -2.4197,4.87398 -10.6217,20.336784 -18.2266,34.361784 -7.6048,14.025 -16.3373,30.29884 -19.4053,36.16409 -3.0681,5.86525 -5.6843,10.55939 -5.8137,10.43142 -0.1293,-0.12797 4.2582,-15.49349 9.75,-34.14561 9.5161,-32.319354 11.2781,-39.270964 8.9361,-35.255094 -1.4325,2.45629 -22.7805,60.587824 -28.9401,78.805194 -2.8824,8.525 -5.5836,15.87206 -6.0026,16.3268 -0.4189,0.45474 -0.8175,-6.97026 -0.8857,-16.5 -0.1592,-22.24698 -1.1496,-38.3904 -2.2489,-36.65638 -0.4636,0.73127 -0.8504,5.60458 -0.8597,10.82958 -0.053,30.19225 -3.8787,79.26703 -6.734,86.39273 l -1.9606,4.89272 -0.6302,-15.89272 c -0.6475,-16.32888 -3.893,-39.05215 -5.8374,-40.86979 -0.7848,-0.7337 -0.9285,-0.0333 -0.5082,2.47706 1.8789,11.22216 2.8379,31.18062 2.2366,46.55016 -0.7557,19.31829 -2.3078,30.16761 -6.0729,42.44984 -4.8459,15.80798 -11.6593,44.36531 -17.4168,73 -4.7897,23.82183 -6.1999,29.23866 -8.5908,33 -3.5818,5.63491 -23.4383,45.46364 -28.6277,57.42245 -6.195,14.27607 -4.4969,13.23928 3.9676,-2.42245 4.3101,-7.975 10.1595,-18.50207 12.9986,-23.3935 2.8391,-4.89142 5.162,-9.03138 5.162,-9.19992 0,-0.16853 1.5945,-2.91646 3.5433,-6.1065 2.2128,-3.62214 3.3561,-4.86132 3.0449,-3.30008 -2.9506,14.80073 -5.649,41.5279 -6.108,60.5 -0.4757,19.66504 0.5177,19.26991 2.5142,-1 z"
     id="path2987"
     inkscape:connector-curvature="0" />
  <rect
     style="fill:none;stroke:#ffffff;stroke-width:5;stroke-linecap:square;stroke-linejoin:miter;stroke-miterlimit:4;stroke-opacity:1;stroke-dasharray:none"
     id="rect3772"
     width="503.93942"
     height="503.93942"
     x="2.5140686"
     y="2.4933014"
     ry="96.64592"
     inkscape:export-xdpi="600"
     inkscape:export-ydpi="600" />
</svg>
