<?xml version="1.0" encoding="utf-8" standalone="no"?>
<!DOCTYPE svg PUBLIC "-//W3C//DTD SVG 1.1//EN"
  "http://www.w3.org/Graphics/SVG/1.1/DTD/svg11.dtd">
<!-- Created with matplotlib (http://matplotlib.org/) -->
<svg height="277pt" version="1.1" viewBox="0 0 523 277" width="523pt" xmlns="http://www.w3.org/2000/svg" xmlns:xlink="http://www.w3.org/1999/xlink">
 <defs>
  <style type="text/css">
*{stroke-linecap:butt;stroke-linejoin:round;}
  </style>
 </defs>
 <g id="figure_1">
  <g id="patch_1">
   <path d="
M0 277.149
L523.509 277.149
L523.509 0
L0 0
z
" style="fill:#ffffff;"/>
  </g>
  <g id="axes_1">
   <g id="patch_2">
    <path d="
M12.8041 269.615
L513.883 269.615
L513.883 7.53472
L12.8041 7.53472
z
" style="fill:#ffffff;"/>
   </g>
   <g id="patch_3">
    <path clip-path="url(#pf3f1751161)" d="
M88.1836 73.7109
Q168.585 49.2288 251.125 24.0955" style="fill:none;stroke:#008080;stroke-linecap:round;stroke-width:2.0;"/>
    <path clip-path="url(#pf3f1751161)" d="
M99.2064 75.5811
L88.1836 73.7109
L96.2934 66.0148
L99.2064 75.5811
z
" style="fill:#008080;stroke:#008080;stroke-linecap:round;stroke-width:2.0;"/>
   </g>
   <g id="patch_4">
    <path clip-path="url(#pf3f1751161)" d="
M280.493 246.21
Q339.491 198.138 400.222 148.653" style="fill:none;stroke:#d3d3d3;stroke-linecap:round;stroke-width:2.0;"/>
    <path clip-path="url(#pf3f1751161)" d="
M291.404 243.77
L280.493 246.21
L285.087 236.017
L291.404 243.77
z
" style="fill:#d3d3d3;stroke:#d3d3d3;stroke-linecap:round;stroke-width:2.0;"/>
   </g>
   <g id="patch_5">
    <path clip-path="url(#pf3f1751161)" d="
M211.744 126.623
Q232.209 108.792 254.359 89.4929" style="fill:none;stroke:#008080;stroke-linecap:round;stroke-width:2.0;"/>
    <path clip-path="url(#pf3f1751161)" d="
M222.568 123.824
L211.744 126.623
L215.999 116.284
L222.568 123.824
z
" style="fill:#008080;stroke:#008080;stroke-linecap:round;stroke-width:2.0;"/>
   </g>
   <g id="patch_6">
    <path clip-path="url(#pf3f1751161)" d="
M250.22 249.356
Q150.982 198.137 49.7576 145.892" style="fill:none;stroke:#d3d3d3;stroke-linecap:round;stroke-width:2.0;"/>
    <path clip-path="url(#pf3f1751161)" d="
M243.627 240.327
L250.22 249.356
L239.041 249.213
L243.627 240.327
z
" style="fill:#d3d3d3;stroke:#d3d3d3;stroke-linecap:round;stroke-width:2.0;"/>
   </g>
   <g id="patch_7">
    <path clip-path="url(#pf3f1751161)" d="
M282.461 249.182
Q378.747 198.139 477.008 146.049" style="fill:none;stroke:#d3d3d3;stroke-linecap:round;stroke-width:2.0;"/>
    <path clip-path="url(#pf3f1751161)" d="
M293.639 248.916
L282.461 249.182
L288.955 240.081
L293.639 248.916
z
" style="fill:#d3d3d3;stroke:#d3d3d3;stroke-linecap:round;stroke-width:2.0;"/>
   </g>
   <g id="patch_8">
    <path clip-path="url(#pf3f1751161)" d="
M252.672 186.187
Q232.208 168.356 210.057 149.057" style="fill:none;stroke:#008080;stroke-linecap:round;stroke-width:2.0;"/>
    <path clip-path="url(#pf3f1751161)" d="
M248.417 175.848
L252.672 186.187
L241.848 183.387
L248.417 175.848
z
" style="fill:#008080;stroke:#008080;stroke-linecap:round;stroke-width:2.0;"/>
   </g>
   <g id="patch_9">
    <path clip-path="url(#pf3f1751161)" d="
M421.792 73.0765
Q352.691 49.2299 281.476 24.6539" style="fill:none;stroke:#008080;stroke-linecap:round;stroke-width:2.0;"/>
    <path clip-path="url(#pf3f1751161)" d="
M413.97 65.0879
L421.792 73.0765
L410.708 74.5408
L413.97 65.0879
z
" style="fill:#008080;stroke:#008080;stroke-linecap:round;stroke-width:2.0;"/>
   </g>
   <g id="patch_10">
    <path clip-path="url(#pf3f1751161)" d="
M266.39 120.383
Q266.39 108.793 266.39 94.9673" style="fill:none;stroke:#008080;stroke-linecap:round;stroke-width:2.0;"/>
    <path clip-path="url(#pf3f1751161)" d="
M271.39 110.383
L266.39 120.383
L261.39 110.383
L271.39 110.383
z
" style="fill:#008080;stroke:#008080;stroke-linecap:round;stroke-width:2.0;"/>
   </g>
   <g id="patch_11">
    <path clip-path="url(#pf3f1751161)" d="
M53.196 134.029
Q150.983 108.793 250.935 82.9994" style="fill:none;stroke:#008080;stroke-linecap:round;stroke-width:2.0;"/>
    <path clip-path="url(#pf3f1751161)" d="
M64.1282 136.371
L53.196 134.029
L61.6294 126.689
L64.1282 136.371
z
" style="fill:#008080;stroke:#008080;stroke-linecap:round;stroke-width:2.0;"/>
   </g>
   <g id="patch_12">
    <path clip-path="url(#pf3f1751161)" d="
M479.127 124.884
Q465.048 108.793 449.496 91.019" style="fill:none;stroke:#008080;stroke-linecap:round;stroke-width:2.0;"/>
    <path clip-path="url(#pf3f1751161)" d="
M476.305 114.066
L479.127 124.884
L468.78 120.651
L476.305 114.066
z
" style="fill:#008080;stroke:#008080;stroke-linecap:round;stroke-width:2.0;"/>
   </g>
   <g id="patch_13">
    <path clip-path="url(#pf3f1751161)" d="
M280.279 186.386
Q301.586 168.357 324.6 148.883" style="fill:none;stroke:#008080;stroke-linecap:round;stroke-width:2.0;"/>
    <path clip-path="url(#pf3f1751161)" d="
M291.143 183.743
L280.279 186.386
L284.683 176.109
L291.143 183.743
z
" style="fill:#008080;stroke:#008080;stroke-linecap:round;stroke-width:2.0;"/>
   </g>
   <g id="patch_14">
    <path clip-path="url(#pf3f1751161)" d="
M266.39 35.4036
Q266.39 49.2292 266.39 60.8188" style="fill:none;stroke:#008080;stroke-linecap:round;stroke-width:2.0;"/>
    <path clip-path="url(#pf3f1751161)" d="
M271.39 50.8188
L266.39 60.8188
L261.39 50.8188
L271.39 50.8188
z
" style="fill:#008080;stroke:#008080;stroke-linecap:round;stroke-width:2.0;"/>
   </g>
   <g id="patch_15">
    <path clip-path="url(#pf3f1751161)" d="
M395.739 131.709
Q339.489 108.792 281.169 85.0322" style="fill:none;stroke:#008080;stroke-linecap:round;stroke-width:2.0;"/>
    <path clip-path="url(#pf3f1751161)" d="
M388.364 123.305
L395.739 131.709
L384.591 132.566
L388.364 123.305
z
" style="fill:#008080;stroke:#008080;stroke-linecap:round;stroke-width:2.0;"/>
   </g>
   <g id="patch_16">
    <path clip-path="url(#pf3f1751161)" d="
M44.8362 122.911
Q53.1796 108.792 62.6606 92.7469" style="fill:none;stroke:#008080;stroke-linecap:round;stroke-width:2.0;"/>
    <path clip-path="url(#pf3f1751161)" d="
M54.2281 116.846
L44.8362 122.911
L45.6189 111.758
L54.2281 116.846
z
" style="fill:#008080;stroke:#008080;stroke-linecap:round;stroke-width:2.0;"/>
   </g>
   <g id="patch_17">
    <path clip-path="url(#pf3f1751161)" d="
M199.837 68.2529
Q225.777 49.2299 253.521 28.8846" style="fill:none;stroke:#008080;stroke-linecap:round;stroke-width:2.0;"/>
    <path clip-path="url(#pf3f1751161)" d="
M210.858 66.3713
L199.837 68.2529
L204.944 58.3072
L210.858 66.3713
z
" style="fill:#008080;stroke:#008080;stroke-linecap:round;stroke-width:2.0;"/>
   </g>
   <g id="patch_18">
    <path clip-path="url(#pf3f1751161)" d="
M266.39 239.51
Q266.39 227.92 266.39 214.095" style="fill:none;stroke:#008080;stroke-linecap:round;stroke-width:2.0;"/>
    <path clip-path="url(#pf3f1751161)" d="
M271.39 229.51
L266.39 239.51
L261.39 229.51
L271.39 229.51
z
" style="fill:#008080;stroke:#008080;stroke-linecap:round;stroke-width:2.0;"/>
   </g>
   <g id="patch_19">
    <path clip-path="url(#pf3f1751161)" d="
M266.39 179.946
Q266.39 168.357 266.39 154.531" style="fill:none;stroke:#008080;stroke-linecap:round;stroke-width:2.0;"/>
    <path clip-path="url(#pf3f1751161)" d="
M271.39 169.946
L266.39 179.946
L261.39 169.946
L271.39 169.946
z
" style="fill:#008080;stroke:#008080;stroke-linecap:round;stroke-width:2.0;"/>
   </g>
   <g id="patch_20">
    <path clip-path="url(#pf3f1751161)" d="
M252.311 246.177
Q193.628 198.139 133.214 148.684" style="fill:none;stroke:#d3d3d3;stroke-linecap:round;stroke-width:2.0;"/>
    <path clip-path="url(#pf3f1751161)" d="
M247.74 235.974
L252.311 246.177
L241.406 243.712
L247.74 235.974
z
" style="fill:#d3d3d3;stroke:#d3d3d3;stroke-linecap:round;stroke-width:2.0;"/>
   </g>
   <g id="patch_21">
    <path clip-path="url(#pf3f1751161)" d="
M346.39 69.3765
Q314.107 49.2288 279.928 27.8971" style="fill:none;stroke:#008080;stroke-linecap:round;stroke-width:2.0;"/>
    <path clip-path="url(#pf3f1751161)" d="
M340.553 59.8403
L346.39 69.3765
L335.259 68.3236
L340.553 59.8403
z
" style="fill:#008080;stroke:#008080;stroke-linecap:round;stroke-width:2.0;"/>
   </g>
   <g id="patch_22">
    <path clip-path="url(#pf3f1751161)" d="
M322.893 126.822
Q301.586 108.793 278.572 89.3197" style="fill:none;stroke:#008080;stroke-linecap:round;stroke-width:2.0;"/>
    <path clip-path="url(#pf3f1751161)" d="
M318.489 116.546
L322.893 126.822
L312.03 124.179
L318.489 116.546
z
" style="fill:#008080;stroke:#008080;stroke-linecap:round;stroke-width:2.0;"/>
   </g>
   <g id="patch_23">
    <path clip-path="url(#pf3f1751161)" d="
M473.519 133.913
Q378.749 108.793 281.817 83.1004" style="fill:none;stroke:#008080;stroke-linecap:round;stroke-width:2.0;"/>
    <path clip-path="url(#pf3f1751161)" d="
M465.134 126.518
L473.519 133.913
L462.572 136.184
L465.134 126.518
z
" style="fill:#008080;stroke:#008080;stroke-linecap:round;stroke-width:2.0;"/>
   </g>
   <g id="patch_24">
    <path clip-path="url(#pf3f1751161)" d="
M134.21 126.212
Q153.014 108.794 173.459 89.8561" style="fill:none;stroke:#008080;stroke-linecap:round;stroke-width:2.0;"/>
    <path clip-path="url(#pf3f1751161)" d="
M144.944 123.085
L134.21 126.212
L138.149 115.749
L144.944 123.085
z
" style="fill:#008080;stroke:#008080;stroke-linecap:round;stroke-width:2.0;"/>
   </g>
   <g id="patch_25">
    <path clip-path="url(#pf3f1751161)" d="
M137.701 131.684
Q193.626 108.793 251.621 85.0559" style="fill:none;stroke:#008080;stroke-linecap:round;stroke-width:2.0;"/>
    <path clip-path="url(#pf3f1751161)" d="
M148.85 132.523
L137.701 131.684
L145.062 123.268
L148.85 132.523
z
" style="fill:#008080;stroke:#008080;stroke-linecap:round;stroke-width:2.0;"/>
   </g>
   <g id="patch_26">
    <path clip-path="url(#pf3f1751161)" d="
M400.789 124.727
Q387.209 108.793 372.179 91.1578" style="fill:none;stroke:#008080;stroke-linecap:round;stroke-width:2.0;"/>
    <path clip-path="url(#pf3f1751161)" d="
M398.108 113.873
L400.789 124.727
L390.497 120.359
L398.108 113.873
z
" style="fill:#008080;stroke:#008080;stroke-linecap:round;stroke-width:2.0;"/>
   </g>
   <g id="matplotlib.axis_1"/>
   <g id="matplotlib.axis_2"/>
   <g id="PathCollection_1">
    <defs>
     <path d="
M-7.07107 -12.2474
L-14.1421 -6.28037e-15
L-7.07107 12.2474
L7.07107 12.2474
L14.1421 8.63551e-15
L7.07107 -12.2474
z
" id="C0_0_ff82a26696"/>
    </defs>
    <use style="fill:#ffffff;stroke:#000000;" x="361.826749742" xlink:href="#C0_0_ff82a26696" y="79.0110850776"/>
    <use style="fill:#ffffff;stroke:#000000;" x="438.988733213" xlink:href="#C0_0_ff82a26696" y="79.0110850776"/>
    <use style="fill:#ffffff;stroke:#000000;" x="185.166419163" xlink:href="#C0_0_ff82a26696" y="79.0110850776"/>
    <use style="fill:#ffffff;stroke:#000000;" x="70.7771629649" xlink:href="#C0_0_ff82a26696" y="79.0110850776"/>
    <use style="fill:#ffffff;stroke:#000000;" x="266.389559659" xlink:href="#C0_0_ff82a26696" y="138.574721441"/>
    <use style="fill:#ffffff;stroke:#000000;" x="198.026749742" xlink:href="#C0_0_ff82a26696" y="138.574721441"/>
    <use style="fill:#ffffff;stroke:#000000;" x="336.782948089" xlink:href="#C0_0_ff82a26696" y="138.574721441"/>
    <use style="fill:#ffffff;stroke:#000000;" x="412.591212552" xlink:href="#C0_0_ff82a26696" y="138.574721441"/>
    <use style="fill:#ffffff;stroke:#000000;" x="491.106915031" xlink:href="#C0_0_ff82a26696" y="138.574721441"/>
    <use style="fill:#ffffff;stroke:#000000;" x="120.864766271" xlink:href="#C0_0_ff82a26696" y="138.574721441"/>
    <use style="fill:#ffffff;stroke:#000000;" x="35.58046875" xlink:href="#C0_0_ff82a26696" y="138.574721441"/>
    <use style="fill:#90ee90;stroke:#000000;" x="266.389559659" xlink:href="#C0_0_ff82a26696" y="19.4474487139"/>
    <use style="fill:#90ee90;stroke:#000000;" x="266.389559659" xlink:href="#C0_0_ff82a26696" y="79.0110850776"/>
    <use style="fill:#90ee90;stroke:#000000;" x="266.389559659" xlink:href="#C0_0_ff82a26696" y="198.138357805"/>
    <use style="fill:#90ee90;stroke:#000000;" x="266.389559659" xlink:href="#C0_0_ff82a26696" y="257.701994168"/>
   </g>
   <g id="text_1">
    <!-- .       SL(2,3)       . -->
    <defs>
     <path d="
M19.1875 8.29688
L53.6094 8.29688
L53.6094 0
L7.32812 0
L7.32812 8.29688
Q12.9375 14.1094 22.625 23.8906
Q32.3281 33.6875 34.8125 36.5312
Q39.5469 41.8438 41.4219 45.5312
Q43.3125 49.2188 43.3125 52.7812
Q43.3125 58.5938 39.2344 62.25
Q35.1562 65.9219 28.6094 65.9219
Q23.9688 65.9219 18.8125 64.3125
Q13.6719 62.7031 7.8125 59.4219
L7.8125 69.3906
Q13.7656 71.7812 18.9375 73
Q24.125 74.2188 28.4219 74.2188
Q39.75 74.2188 46.4844 68.5469
Q53.2188 62.8906 53.2188 53.4219
Q53.2188 48.9219 51.5312 44.8906
Q49.8594 40.875 45.4062 35.4062
Q44.1875 33.9844 37.6406 27.2188
Q31.1094 20.4531 19.1875 8.29688" id="BitstreamVeraSans-Roman-32"/>
     <path id="BitstreamVeraSans-Roman-20"/>
     <path d="
M9.8125 72.9062
L19.6719 72.9062
L19.6719 8.29688
L55.1719 8.29688
L55.1719 0
L9.8125 0
z
" id="BitstreamVeraSans-Roman-4c"/>
     <path d="
M40.5781 39.3125
Q47.6562 37.7969 51.625 33
Q55.6094 28.2188 55.6094 21.1875
Q55.6094 10.4062 48.1875 4.48438
Q40.7656 -1.42188 27.0938 -1.42188
Q22.5156 -1.42188 17.6562 -0.515625
Q12.7969 0.390625 7.625 2.20312
L7.625 11.7188
Q11.7188 9.32812 16.5938 8.10938
Q21.4844 6.89062 26.8125 6.89062
Q36.0781 6.89062 40.9375 10.5469
Q45.7969 14.2031 45.7969 21.1875
Q45.7969 27.6406 41.2812 31.2656
Q36.7656 34.9062 28.7188 34.9062
L20.2188 34.9062
L20.2188 43.0156
L29.1094 43.0156
Q36.375 43.0156 40.2344 45.9219
Q44.0938 48.8281 44.0938 54.2969
Q44.0938 59.9062 40.1094 62.9062
Q36.1406 65.9219 28.7188 65.9219
Q24.6562 65.9219 20.0156 65.0312
Q15.375 64.1562 9.8125 62.3125
L9.8125 71.0938
Q15.4375 72.6562 20.3438 73.4375
Q25.25 74.2188 29.5938 74.2188
Q40.8281 74.2188 47.3594 69.1094
Q53.9062 64.0156 53.9062 55.3281
Q53.9062 49.2656 50.4375 45.0938
Q46.9688 40.9219 40.5781 39.3125" id="BitstreamVeraSans-Roman-33"/>
     <path d="
M8.01562 75.875
L15.8281 75.875
Q23.1406 64.3594 26.7812 53.3125
Q30.4219 42.2812 30.4219 31.3906
Q30.4219 20.4531 26.7812 9.375
Q23.1406 -1.70312 15.8281 -13.1875
L8.01562 -13.1875
Q14.5 -2 17.7031 9.0625
Q20.9062 20.125 20.9062 31.3906
Q20.9062 42.6719 17.7031 53.6562
Q14.5 64.6562 8.01562 75.875" id="BitstreamVeraSans-Roman-29"/>
     <path d="
M31 75.875
Q24.4688 64.6562 21.2812 53.6562
Q18.1094 42.6719 18.1094 31.3906
Q18.1094 20.125 21.3125 9.0625
Q24.5156 -2 31 -13.1875
L23.1875 -13.1875
Q15.875 -1.70312 12.2344 9.375
Q8.59375 20.4531 8.59375 31.3906
Q8.59375 42.2812 12.2031 53.3125
Q15.8281 64.3594 23.1875 75.875
z
" id="BitstreamVeraSans-Roman-28"/>
     <path d="
M11.7188 12.4062
L22.0156 12.4062
L22.0156 4
L14.0156 -11.625
L7.71875 -11.625
L11.7188 4
z
" id="BitstreamVeraSans-Roman-2c"/>
     <path d="
M53.5156 70.5156
L53.5156 60.8906
Q47.9062 63.5781 42.9219 64.8906
Q37.9375 66.2188 33.2969 66.2188
Q25.25 66.2188 20.875 63.0938
Q16.5 59.9688 16.5 54.2031
Q16.5 49.3594 19.4062 46.8906
Q22.3125 44.4375 30.4219 42.9219
L36.375 41.7031
Q47.4062 39.5938 52.6562 34.2969
Q57.9062 29 57.9062 20.125
Q57.9062 9.51562 50.7969 4.04688
Q43.7031 -1.42188 29.9844 -1.42188
Q24.8125 -1.42188 18.9688 -0.25
Q13.1406 0.921875 6.89062 3.21875
L6.89062 13.375
Q12.8906 10.0156 18.6562 8.29688
Q24.4219 6.59375 29.9844 6.59375
Q38.4219 6.59375 43.0156 9.90625
Q47.6094 13.2344 47.6094 19.3906
Q47.6094 24.75 44.3125 27.7812
Q41.0156 30.8125 33.5 32.3281
L27.4844 33.5
Q16.4531 35.6875 11.5156 40.375
Q6.59375 45.0625 6.59375 53.4219
Q6.59375 63.0938 13.4062 68.6562
Q20.2188 74.2188 32.1719 74.2188
Q37.3125 74.2188 42.625 73.2812
Q47.9531 72.3594 53.5156 70.5156" id="BitstreamVeraSans-Roman-53"/>
     <path d="
M10.6875 12.4062
L21 12.4062
L21 0
L10.6875 0
z
" id="BitstreamVeraSans-Roman-2e"/>
    </defs>
    <g transform="translate(223.690340909 260.461369168)scale(0.1 -0.1)">
     <use xlink:href="#BitstreamVeraSans-Roman-2e"/>
     <use x="31.787109375" xlink:href="#BitstreamVeraSans-Roman-20"/>
     <use x="63.57421875" xlink:href="#BitstreamVeraSans-Roman-20"/>
     <use x="95.361328125" xlink:href="#BitstreamVeraSans-Roman-20"/>
     <use x="127.1484375" xlink:href="#BitstreamVeraSans-Roman-20"/>
     <use x="158.935546875" xlink:href="#BitstreamVeraSans-Roman-20"/>
     <use x="190.72265625" xlink:href="#BitstreamVeraSans-Roman-20"/>
     <use x="222.509765625" xlink:href="#BitstreamVeraSans-Roman-20"/>
     <use x="254.296875" xlink:href="#BitstreamVeraSans-Roman-53"/>
     <use x="317.7734375" xlink:href="#BitstreamVeraSans-Roman-4c"/>
     <use x="373.486328125" xlink:href="#BitstreamVeraSans-Roman-28"/>
     <use x="412.5" xlink:href="#BitstreamVeraSans-Roman-32"/>
     <use x="476.123046875" xlink:href="#BitstreamVeraSans-Roman-2c"/>
     <use x="507.91015625" xlink:href="#BitstreamVeraSans-Roman-33"/>
     <use x="571.533203125" xlink:href="#BitstreamVeraSans-Roman-29"/>
     <use x="610.546875" xlink:href="#BitstreamVeraSans-Roman-20"/>
     <use x="642.333984375" xlink:href="#BitstreamVeraSans-Roman-20"/>
     <use x="674.12109375" xlink:href="#BitstreamVeraSans-Roman-20"/>
     <use x="705.908203125" xlink:href="#BitstreamVeraSans-Roman-20"/>
     <use x="737.6953125" xlink:href="#BitstreamVeraSans-Roman-20"/>
     <use x="769.482421875" xlink:href="#BitstreamVeraSans-Roman-20"/>
     <use x="801.26953125" xlink:href="#BitstreamVeraSans-Roman-20"/>
     <use x="833.056640625" xlink:href="#BitstreamVeraSans-Roman-2e"/>
    </g>
   </g>
   <g id="text_2">
    <!-- .      C6      . -->
    <defs>
     <path d="
M33.0156 40.375
Q26.375 40.375 22.4844 35.8281
Q18.6094 31.2969 18.6094 23.3906
Q18.6094 15.5312 22.4844 10.9531
Q26.375 6.39062 33.0156 6.39062
Q39.6562 6.39062 43.5312 10.9531
Q47.4062 15.5312 47.4062 23.3906
Q47.4062 31.2969 43.5312 35.8281
Q39.6562 40.375 33.0156 40.375
M52.5938 71.2969
L52.5938 62.3125
Q48.875 64.0625 45.0938 64.9844
Q41.3125 65.9219 37.5938 65.9219
Q27.8281 65.9219 22.6719 59.3281
Q17.5312 52.7344 16.7969 39.4062
Q19.6719 43.6562 24.0156 45.9219
Q28.375 48.1875 33.5938 48.1875
Q44.5781 48.1875 50.9531 41.5156
Q57.3281 34.8594 57.3281 23.3906
Q57.3281 12.1562 50.6875 5.35938
Q44.0469 -1.42188 33.0156 -1.42188
Q20.3594 -1.42188 13.6719 8.26562
Q6.98438 17.9688 6.98438 36.375
Q6.98438 53.6562 15.1875 63.9375
Q23.3906 74.2188 37.2031 74.2188
Q40.9219 74.2188 44.7031 73.4844
Q48.4844 72.75 52.5938 71.2969" id="BitstreamVeraSans-Roman-36"/>
     <path d="
M64.4062 67.2812
L64.4062 56.8906
Q59.4219 61.5312 53.7812 63.8125
Q48.1406 66.1094 41.7969 66.1094
Q29.2969 66.1094 22.6562 58.4688
Q16.0156 50.8281 16.0156 36.375
Q16.0156 21.9688 22.6562 14.3281
Q29.2969 6.6875 41.7969 6.6875
Q48.1406 6.6875 53.7812 8.98438
Q59.4219 11.2812 64.4062 15.9219
L64.4062 5.60938
Q59.2344 2.09375 53.4375 0.328125
Q47.6562 -1.42188 41.2188 -1.42188
Q24.6562 -1.42188 15.125 8.70312
Q5.60938 18.8438 5.60938 36.375
Q5.60938 53.9531 15.125 64.0781
Q24.6562 74.2188 41.2188 74.2188
Q47.75 74.2188 53.5312 72.4844
Q59.3281 70.75 64.4062 67.2812" id="BitstreamVeraSans-Roman-43"/>
    </defs>
    <g transform="translate(7.2 141.334096441)scale(0.1 -0.1)">
     <use xlink:href="#BitstreamVeraSans-Roman-2e"/>
     <use x="31.787109375" xlink:href="#BitstreamVeraSans-Roman-20"/>
     <use x="63.57421875" xlink:href="#BitstreamVeraSans-Roman-20"/>
     <use x="95.361328125" xlink:href="#BitstreamVeraSans-Roman-20"/>
     <use x="127.1484375" xlink:href="#BitstreamVeraSans-Roman-20"/>
     <use x="158.935546875" xlink:href="#BitstreamVeraSans-Roman-20"/>
     <use x="190.72265625" xlink:href="#BitstreamVeraSans-Roman-20"/>
     <use x="222.509765625" xlink:href="#BitstreamVeraSans-Roman-43"/>
     <use x="292.333984375" xlink:href="#BitstreamVeraSans-Roman-36"/>
     <use x="355.95703125" xlink:href="#BitstreamVeraSans-Roman-20"/>
     <use x="387.744140625" xlink:href="#BitstreamVeraSans-Roman-20"/>
     <use x="419.53125" xlink:href="#BitstreamVeraSans-Roman-20"/>
     <use x="451.318359375" xlink:href="#BitstreamVeraSans-Roman-20"/>
     <use x="483.10546875" xlink:href="#BitstreamVeraSans-Roman-20"/>
     <use x="514.892578125" xlink:href="#BitstreamVeraSans-Roman-20"/>
     <use x="546.6796875" xlink:href="#BitstreamVeraSans-Roman-2e"/>
    </g>
   </g>
   <g id="text_3">
    <!-- .      Q8       . -->
    <defs>
     <path d="
M39.4062 66.2188
Q28.6562 66.2188 22.3281 58.2031
Q16.0156 50.2031 16.0156 36.375
Q16.0156 22.6094 22.3281 14.5938
Q28.6562 6.59375 39.4062 6.59375
Q50.1406 6.59375 56.4219 14.5938
Q62.7031 22.6094 62.7031 36.375
Q62.7031 50.2031 56.4219 58.2031
Q50.1406 66.2188 39.4062 66.2188
M53.2188 1.3125
L66.2188 -12.8906
L54.2969 -12.8906
L43.5 -1.21875
Q41.8906 -1.3125 41.0312 -1.35938
Q40.1875 -1.42188 39.4062 -1.42188
Q24.0312 -1.42188 14.8125 8.85938
Q5.60938 19.1406 5.60938 36.375
Q5.60938 53.6562 14.8125 63.9375
Q24.0312 74.2188 39.4062 74.2188
Q54.7344 74.2188 63.9062 63.9375
Q73.0938 53.6562 73.0938 36.375
Q73.0938 23.6875 67.9844 14.6406
Q62.8906 5.60938 53.2188 1.3125" id="BitstreamVeraSans-Roman-51"/>
     <path d="
M31.7812 34.625
Q24.75 34.625 20.7188 30.8594
Q16.7031 27.0938 16.7031 20.5156
Q16.7031 13.9219 20.7188 10.1562
Q24.75 6.39062 31.7812 6.39062
Q38.8125 6.39062 42.8594 10.1719
Q46.9219 13.9688 46.9219 20.5156
Q46.9219 27.0938 42.8906 30.8594
Q38.875 34.625 31.7812 34.625
M21.9219 38.8125
Q15.5781 40.375 12.0312 44.7188
Q8.5 49.0781 8.5 55.3281
Q8.5 64.0625 14.7188 69.1406
Q20.9531 74.2188 31.7812 74.2188
Q42.6719 74.2188 48.875 69.1406
Q55.0781 64.0625 55.0781 55.3281
Q55.0781 49.0781 51.5312 44.7188
Q48 40.375 41.7031 38.8125
Q48.8281 37.1562 52.7969 32.3125
Q56.7812 27.4844 56.7812 20.5156
Q56.7812 9.90625 50.3125 4.23438
Q43.8438 -1.42188 31.7812 -1.42188
Q19.7344 -1.42188 13.25 4.23438
Q6.78125 9.90625 6.78125 20.5156
Q6.78125 27.4844 10.7812 32.3125
Q14.7969 37.1562 21.9219 38.8125
M18.3125 54.3906
Q18.3125 48.7344 21.8438 45.5625
Q25.3906 42.3906 31.7812 42.3906
Q38.1406 42.3906 41.7188 45.5625
Q45.3125 48.7344 45.3125 54.3906
Q45.3125 60.0625 41.7188 63.2344
Q38.1406 66.4062 31.7812 66.4062
Q25.3906 66.4062 21.8438 63.2344
Q18.3125 60.0625 18.3125 54.3906" id="BitstreamVeraSans-Roman-38"/>
    </defs>
    <g transform="translate(235.975497159 200.897732805)scale(0.1 -0.1)">
     <use xlink:href="#BitstreamVeraSans-Roman-2e"/>
     <use x="31.787109375" xlink:href="#BitstreamVeraSans-Roman-20"/>
     <use x="63.57421875" xlink:href="#BitstreamVeraSans-Roman-20"/>
     <use x="95.361328125" xlink:href="#BitstreamVeraSans-Roman-20"/>
     <use x="127.1484375" xlink:href="#BitstreamVeraSans-Roman-20"/>
     <use x="158.935546875" xlink:href="#BitstreamVeraSans-Roman-20"/>
     <use x="190.72265625" xlink:href="#BitstreamVeraSans-Roman-20"/>
     <use x="222.509765625" xlink:href="#BitstreamVeraSans-Roman-51"/>
     <use x="301.220703125" xlink:href="#BitstreamVeraSans-Roman-38"/>
     <use x="364.84375" xlink:href="#BitstreamVeraSans-Roman-20"/>
     <use x="396.630859375" xlink:href="#BitstreamVeraSans-Roman-20"/>
     <use x="428.41796875" xlink:href="#BitstreamVeraSans-Roman-20"/>
     <use x="460.205078125" xlink:href="#BitstreamVeraSans-Roman-20"/>
     <use x="491.9921875" xlink:href="#BitstreamVeraSans-Roman-20"/>
     <use x="523.779296875" xlink:href="#BitstreamVeraSans-Roman-20"/>
     <use x="555.56640625" xlink:href="#BitstreamVeraSans-Roman-20"/>
     <use x="587.353515625" xlink:href="#BitstreamVeraSans-Roman-2e"/>
    </g>
   </g>
   <g id="text_4">
    <!-- .     C6      . -->
    <g transform="translate(94.0733600207 141.334096441)scale(0.1 -0.1)">
     <use xlink:href="#BitstreamVeraSans-Roman-2e"/>
     <use x="31.787109375" xlink:href="#BitstreamVeraSans-Roman-20"/>
     <use x="63.57421875" xlink:href="#BitstreamVeraSans-Roman-20"/>
     <use x="95.361328125" xlink:href="#BitstreamVeraSans-Roman-20"/>
     <use x="127.1484375" xlink:href="#BitstreamVeraSans-Roman-20"/>
     <use x="158.935546875" xlink:href="#BitstreamVeraSans-Roman-20"/>
     <use x="190.72265625" xlink:href="#BitstreamVeraSans-Roman-43"/>
     <use x="260.546875" xlink:href="#BitstreamVeraSans-Roman-36"/>
     <use x="324.169921875" xlink:href="#BitstreamVeraSans-Roman-20"/>
     <use x="355.95703125" xlink:href="#BitstreamVeraSans-Roman-20"/>
     <use x="387.744140625" xlink:href="#BitstreamVeraSans-Roman-20"/>
     <use x="419.53125" xlink:href="#BitstreamVeraSans-Roman-20"/>
     <use x="451.318359375" xlink:href="#BitstreamVeraSans-Roman-20"/>
     <use x="483.10546875" xlink:href="#BitstreamVeraSans-Roman-20"/>
     <use x="514.892578125" xlink:href="#BitstreamVeraSans-Roman-2e"/>
    </g>
   </g>
   <g id="text_5">
    <!-- .     C6     . -->
    <g transform="translate(465.904571281 141.334096441)scale(0.1 -0.1)">
     <use xlink:href="#BitstreamVeraSans-Roman-2e"/>
     <use x="31.787109375" xlink:href="#BitstreamVeraSans-Roman-20"/>
     <use x="63.57421875" xlink:href="#BitstreamVeraSans-Roman-20"/>
     <use x="95.361328125" xlink:href="#BitstreamVeraSans-Roman-20"/>
     <use x="127.1484375" xlink:href="#BitstreamVeraSans-Roman-20"/>
     <use x="158.935546875" xlink:href="#BitstreamVeraSans-Roman-20"/>
     <use x="190.72265625" xlink:href="#BitstreamVeraSans-Roman-43"/>
     <use x="260.546875" xlink:href="#BitstreamVeraSans-Roman-36"/>
     <use x="324.169921875" xlink:href="#BitstreamVeraSans-Roman-20"/>
     <use x="355.95703125" xlink:href="#BitstreamVeraSans-Roman-20"/>
     <use x="387.744140625" xlink:href="#BitstreamVeraSans-Roman-20"/>
     <use x="419.53125" xlink:href="#BitstreamVeraSans-Roman-20"/>
     <use x="451.318359375" xlink:href="#BitstreamVeraSans-Roman-20"/>
     <use x="483.10546875" xlink:href="#BitstreamVeraSans-Roman-2e"/>
    </g>
   </g>
   <g id="text_6">
    <!-- .    C4    . -->
    <defs>
     <path d="
M37.7969 64.3125
L12.8906 25.3906
L37.7969 25.3906
z

M35.2031 72.9062
L47.6094 72.9062
L47.6094 25.3906
L58.0156 25.3906
L58.0156 17.1875
L47.6094 17.1875
L47.6094 0
L37.7969 0
L37.7969 17.1875
L4.89062 17.1875
L4.89062 26.7031
z
" id="BitstreamVeraSans-Roman-34"/>
    </defs>
    <g transform="translate(314.758729339 141.334096441)scale(0.1 -0.1)">
     <use xlink:href="#BitstreamVeraSans-Roman-2e"/>
     <use x="31.787109375" xlink:href="#BitstreamVeraSans-Roman-20"/>
     <use x="63.57421875" xlink:href="#BitstreamVeraSans-Roman-20"/>
     <use x="95.361328125" xlink:href="#BitstreamVeraSans-Roman-20"/>
     <use x="127.1484375" xlink:href="#BitstreamVeraSans-Roman-20"/>
     <use x="158.935546875" xlink:href="#BitstreamVeraSans-Roman-43"/>
     <use x="228.759765625" xlink:href="#BitstreamVeraSans-Roman-34"/>
     <use x="292.3828125" xlink:href="#BitstreamVeraSans-Roman-20"/>
     <use x="324.169921875" xlink:href="#BitstreamVeraSans-Roman-20"/>
     <use x="355.95703125" xlink:href="#BitstreamVeraSans-Roman-20"/>
     <use x="387.744140625" xlink:href="#BitstreamVeraSans-Roman-20"/>
     <use x="419.53125" xlink:href="#BitstreamVeraSans-Roman-2e"/>
    </g>
   </g>
   <g id="text_7">
    <!-- .    C6     . -->
    <g transform="translate(388.977931302 141.334096441)scale(0.1 -0.1)">
     <use xlink:href="#BitstreamVeraSans-Roman-2e"/>
     <use x="31.787109375" xlink:href="#BitstreamVeraSans-Roman-20"/>
     <use x="63.57421875" xlink:href="#BitstreamVeraSans-Roman-20"/>
     <use x="95.361328125" xlink:href="#BitstreamVeraSans-Roman-20"/>
     <use x="127.1484375" xlink:href="#BitstreamVeraSans-Roman-20"/>
     <use x="158.935546875" xlink:href="#BitstreamVeraSans-Roman-43"/>
     <use x="228.759765625" xlink:href="#BitstreamVeraSans-Roman-36"/>
     <use x="292.3828125" xlink:href="#BitstreamVeraSans-Roman-20"/>
     <use x="324.169921875" xlink:href="#BitstreamVeraSans-Roman-20"/>
     <use x="355.95703125" xlink:href="#BitstreamVeraSans-Roman-20"/>
     <use x="387.744140625" xlink:href="#BitstreamVeraSans-Roman-20"/>
     <use x="419.53125" xlink:href="#BitstreamVeraSans-Roman-20"/>
     <use x="451.318359375" xlink:href="#BitstreamVeraSans-Roman-2e"/>
    </g>
   </g>
   <g id="text_8">
    <!-- .   C4    . -->
    <g transform="translate(177.591593492 141.334096441)scale(0.1 -0.1)">
     <use xlink:href="#BitstreamVeraSans-Roman-2e"/>
     <use x="31.787109375" xlink:href="#BitstreamVeraSans-Roman-20"/>
     <use x="63.57421875" xlink:href="#BitstreamVeraSans-Roman-20"/>
     <use x="95.361328125" xlink:href="#BitstreamVeraSans-Roman-20"/>
     <use x="127.1484375" xlink:href="#BitstreamVeraSans-Roman-43"/>
     <use x="196.97265625" xlink:href="#BitstreamVeraSans-Roman-34"/>
     <use x="260.595703125" xlink:href="#BitstreamVeraSans-Roman-20"/>
     <use x="292.3828125" xlink:href="#BitstreamVeraSans-Roman-20"/>
     <use x="324.169921875" xlink:href="#BitstreamVeraSans-Roman-20"/>
     <use x="355.95703125" xlink:href="#BitstreamVeraSans-Roman-20"/>
     <use x="387.744140625" xlink:href="#BitstreamVeraSans-Roman-2e"/>
    </g>
   </g>
   <g id="text_9">
    <!-- .   C4   . -->
    <g transform="translate(247.543465909 141.334096441)scale(0.1 -0.1)">
     <use xlink:href="#BitstreamVeraSans-Roman-2e"/>
     <use x="31.787109375" xlink:href="#BitstreamVeraSans-Roman-20"/>
     <use x="63.57421875" xlink:href="#BitstreamVeraSans-Roman-20"/>
     <use x="95.361328125" xlink:href="#BitstreamVeraSans-Roman-20"/>
     <use x="127.1484375" xlink:href="#BitstreamVeraSans-Roman-43"/>
     <use x="196.97265625" xlink:href="#BitstreamVeraSans-Roman-34"/>
     <use x="260.595703125" xlink:href="#BitstreamVeraSans-Roman-20"/>
     <use x="292.3828125" xlink:href="#BitstreamVeraSans-Roman-20"/>
     <use x="324.169921875" xlink:href="#BitstreamVeraSans-Roman-20"/>
     <use x="355.95703125" xlink:href="#BitstreamVeraSans-Roman-2e"/>
    </g>
   </g>
   <g id="text_10">
    <!-- .  C3   . -->
    <g transform="translate(53.5201317149 81.7704600776)scale(0.1 -0.1)">
     <use xlink:href="#BitstreamVeraSans-Roman-2e"/>
     <use x="31.787109375" xlink:href="#BitstreamVeraSans-Roman-20"/>
     <use x="63.57421875" xlink:href="#BitstreamVeraSans-Roman-20"/>
     <use x="95.361328125" xlink:href="#BitstreamVeraSans-Roman-43"/>
     <use x="165.185546875" xlink:href="#BitstreamVeraSans-Roman-33"/>
     <use x="228.80859375" xlink:href="#BitstreamVeraSans-Roman-20"/>
     <use x="260.595703125" xlink:href="#BitstreamVeraSans-Roman-20"/>
     <use x="292.3828125" xlink:href="#BitstreamVeraSans-Roman-20"/>
     <use x="324.169921875" xlink:href="#BitstreamVeraSans-Roman-2e"/>
    </g>
   </g>
   <g id="text_11">
    <!-- .  C3  . -->
    <g transform="translate(169.498450413 81.7704600776)scale(0.1 -0.1)">
     <use xlink:href="#BitstreamVeraSans-Roman-2e"/>
     <use x="31.787109375" xlink:href="#BitstreamVeraSans-Roman-20"/>
     <use x="63.57421875" xlink:href="#BitstreamVeraSans-Roman-20"/>
     <use x="95.361328125" xlink:href="#BitstreamVeraSans-Roman-43"/>
     <use x="165.185546875" xlink:href="#BitstreamVeraSans-Roman-33"/>
     <use x="228.80859375" xlink:href="#BitstreamVeraSans-Roman-20"/>
     <use x="260.595703125" xlink:href="#BitstreamVeraSans-Roman-20"/>
     <use x="292.3828125" xlink:href="#BitstreamVeraSans-Roman-2e"/>
    </g>
   </g>
   <g id="text_12">
    <!-- . C3  . -->
    <g transform="translate(424.909826963 81.7704600776)scale(0.1 -0.1)">
     <use xlink:href="#BitstreamVeraSans-Roman-2e"/>
     <use x="31.787109375" xlink:href="#BitstreamVeraSans-Roman-20"/>
     <use x="63.57421875" xlink:href="#BitstreamVeraSans-Roman-43"/>
     <use x="133.3984375" xlink:href="#BitstreamVeraSans-Roman-33"/>
     <use x="197.021484375" xlink:href="#BitstreamVeraSans-Roman-20"/>
     <use x="228.80859375" xlink:href="#BitstreamVeraSans-Roman-20"/>
     <use x="260.595703125" xlink:href="#BitstreamVeraSans-Roman-2e"/>
    </g>
   </g>
   <g id="text_13">
    <!-- . C3 . -->
    <g transform="translate(349.336905992 81.7704600776)scale(0.1 -0.1)">
     <use xlink:href="#BitstreamVeraSans-Roman-2e"/>
     <use x="31.787109375" xlink:href="#BitstreamVeraSans-Roman-20"/>
     <use x="63.57421875" xlink:href="#BitstreamVeraSans-Roman-43"/>
     <use x="133.3984375" xlink:href="#BitstreamVeraSans-Roman-33"/>
     <use x="197.021484375" xlink:href="#BitstreamVeraSans-Roman-20"/>
     <use x="228.80859375" xlink:href="#BitstreamVeraSans-Roman-2e"/>
    </g>
   </g>
   <g id="text_14">
    <!-- .1. -->
    <defs>
     <path d="
M12.4062 8.29688
L28.5156 8.29688
L28.5156 63.9219
L10.9844 60.4062
L10.9844 69.3906
L28.4219 72.9062
L38.2812 72.9062
L38.2812 8.29688
L54.3906 8.29688
L54.3906 0
L12.4062 0
z
" id="BitstreamVeraSans-Roman-31"/>
    </defs>
    <g transform="translate(261.103622159 22.2068237139)scale(0.1 -0.1)">
     <use xlink:href="#BitstreamVeraSans-Roman-2e"/>
     <use x="31.787109375" xlink:href="#BitstreamVeraSans-Roman-31"/>
     <use x="95.41015625" xlink:href="#BitstreamVeraSans-Roman-2e"/>
    </g>
   </g>
   <g id="text_15">
    <!-- .C2 . -->
    <g transform="translate(255.488778409 81.7704600776)scale(0.1 -0.1)">
     <use xlink:href="#BitstreamVeraSans-Roman-2e"/>
     <use x="31.787109375" xlink:href="#BitstreamVeraSans-Roman-43"/>
     <use x="101.611328125" xlink:href="#BitstreamVeraSans-Roman-32"/>
     <use x="165.234375" xlink:href="#BitstreamVeraSans-Roman-20"/>
     <use x="197.021484375" xlink:href="#BitstreamVeraSans-Roman-2e"/>
    </g>
   </g>
  </g>
 </g>
 <defs>
  <clipPath id="pf3f1751161">
   <rect height="262.08" width="501.079090909" x="12.804146436" y="7.53472144119"/>
  </clipPath>
 </defs>
</svg>
