<?xml version="1.0" encoding="utf-8" standalone="no"?>
<!DOCTYPE svg PUBLIC "-//W3C//DTD SVG 1.1//EN"
  "http://www.w3.org/Graphics/SVG/1.1/DTD/svg11.dtd">
<!-- Created with matplotlib (http://matplotlib.org/) -->
<svg height="253pt" version="1.1" viewBox="0 0 568 253" width="568pt" xmlns="http://www.w3.org/2000/svg" xmlns:xlink="http://www.w3.org/1999/xlink">
 <defs>
  <style type="text/css">
*{stroke-linecap:butt;stroke-linejoin:round;}
  </style>
 </defs>
 <g id="figure_1">
  <g id="patch_1">
   <path d="
M0 253.212
L568.056 253.212
L568.056 0
L0 0
z
" style="fill:#ffffff;"/>
  </g>
  <g id="axes_1">
   <g id="patch_2">
    <path d="
M10.5768 244.48
L560.657 244.48
L560.657 8.7316
L10.5768 8.7316
z
" style="fill:#ffffff;"/>
   </g>
   <g id="patch_3">
    <path clip-path="url(#p0fe0b106c0)" d="
M141.137 69.0213
Q242.083 46.2372 345.21 22.9609" style="fill:none;stroke:#008080;stroke-linecap:round;stroke-width:2.0;"/>
    <path clip-path="url(#p0fe0b106c0)" d="
M151.992 71.697
L141.137 69.0213
L149.791 61.9424
L151.992 71.697
z
" style="fill:#008080;stroke:#008080;stroke-linecap:round;stroke-width:2.0;"/>
   </g>
   <g id="patch_4">
    <path clip-path="url(#p0fe0b106c0)" d="
M372.365 219.741
Q405.053 180.186 439.166 138.906" style="fill:none;stroke:#d3d3d3;stroke-linecap:round;stroke-width:2.0;"/>
    <path clip-path="url(#p0fe0b106c0)" d="
M382.589 215.218
L372.365 219.741
L374.881 208.848
L382.589 215.218
z
" style="fill:#d3d3d3;stroke:#d3d3d3;stroke-linecap:round;stroke-width:2.0;"/>
   </g>
   <g id="patch_5">
    <path clip-path="url(#p0fe0b106c0)" d="
M211.309 117.469
Q241.712 99.8163 274.048 81.0404" style="fill:none;stroke:#008080;stroke-linecap:round;stroke-width:2.0;"/>
    <path clip-path="url(#p0fe0b106c0)" d="
M222.468 116.772
L211.309 117.469
L217.446 108.124
L222.468 116.772
z
" style="fill:#008080;stroke:#008080;stroke-linecap:round;stroke-width:2.0;"/>
   </g>
   <g id="patch_6">
    <path clip-path="url(#p0fe0b106c0)" d="
M343.496 228.07
Q198.177 180.184 50.7333 131.599" style="fill:none;stroke:#d3d3d3;stroke-linecap:round;stroke-width:2.0;"/>
    <path clip-path="url(#p0fe0b106c0)" d="
M335.563 220.192
L343.496 228.07
L332.434 229.689
L335.563 220.192
z
" style="fill:#d3d3d3;stroke:#d3d3d3;stroke-linecap:round;stroke-width:2.0;"/>
   </g>
   <g id="patch_7">
    <path clip-path="url(#p0fe0b106c0)" d="
M376.289 224.259
Q448.215 180.185 522.047 134.943" style="fill:none;stroke:#d3d3d3;stroke-linecap:round;stroke-width:2.0;"/>
    <path clip-path="url(#p0fe0b106c0)" d="
M387.428 223.297
L376.289 224.259
L382.204 214.771
L387.428 223.297
z
" style="fill:#d3d3d3;stroke:#d3d3d3;stroke-linecap:round;stroke-width:2.0;"/>
   </g>
   <g id="patch_8">
    <path clip-path="url(#p0fe0b106c0)" d="
M224.231 165.536
Q215.295 153.396 205.033 139.456" style="fill:none;stroke:#008080;stroke-linecap:round;stroke-width:2.0;"/>
    <path clip-path="url(#p0fe0b106c0)" d="
M222.329 154.518
L224.231 165.536
L214.276 160.446
L222.329 154.518
z
" style="fill:#008080;stroke:#008080;stroke-linecap:round;stroke-width:2.0;"/>
   </g>
   <g id="patch_9">
    <path clip-path="url(#p0fe0b106c0)" d="
M360.777 54.8352
Q360.777 46.2393 360.777 35.4073" style="fill:none;stroke:#008080;stroke-linecap:round;stroke-width:2.0;"/>
    <path clip-path="url(#p0fe0b106c0)" d="
M365.777 44.8352
L360.777 54.8352
L355.777 44.8352
L365.777 44.8352
z
" style="fill:#008080;stroke:#008080;stroke-linecap:round;stroke-width:2.0;"/>
   </g>
   <g id="patch_10">
    <path clip-path="url(#p0fe0b106c0)" d="
M360.777 108.414
Q360.777 99.8185 360.777 88.9865" style="fill:none;stroke:#008080;stroke-linecap:round;stroke-width:2.0;"/>
    <path clip-path="url(#p0fe0b106c0)" d="
M365.777 98.4144
L360.777 108.414
L355.777 98.4144
L365.777 98.4144
z
" style="fill:#008080;stroke:#008080;stroke-linecap:round;stroke-width:2.0;"/>
   </g>
   <g id="patch_11">
    <path clip-path="url(#p0fe0b106c0)" d="
M137.743 121.061
Q204.133 99.8159 272.653 77.8896" style="fill:none;stroke:#008080;stroke-linecap:round;stroke-width:2.0;"/>
    <path clip-path="url(#p0fe0b106c0)" d="
M148.791 122.775
L137.743 121.061
L145.743 113.251
L148.791 122.775
z
" style="fill:#008080;stroke:#008080;stroke-linecap:round;stroke-width:2.0;"/>
   </g>
   <g id="patch_12">
    <path clip-path="url(#p0fe0b106c0)" d="
M53.3767 122.826
Q161.714 99.8165 272.238 76.3423" style="fill:none;stroke:#008080;stroke-linecap:round;stroke-width:2.0;"/>
    <path clip-path="url(#p0fe0b106c0)" d="
M64.1973 125.64
L53.3767 122.826
L62.1198 115.858
L64.1973 125.64
z
" style="fill:#008080;stroke:#008080;stroke-linecap:round;stroke-width:2.0;"/>
   </g>
   <g id="patch_13">
    <path clip-path="url(#p0fe0b106c0)" d="
M245.798 165.536
Q254.734 153.396 264.995 139.456" style="fill:none;stroke:#008080;stroke-linecap:round;stroke-width:2.0;"/>
    <path clip-path="url(#p0fe0b106c0)" d="
M255.753 160.446
L245.798 165.536
L247.699 154.518
L255.753 160.446
z
" style="fill:#008080;stroke:#008080;stroke-linecap:round;stroke-width:2.0;"/>
   </g>
   <g id="patch_14">
    <path clip-path="url(#p0fe0b106c0)" d="
M529.475 109.496
Q525.979 99.817 521.725 88.0351" style="fill:none;stroke:#008080;stroke-linecap:round;stroke-width:2.0;"/>
    <path clip-path="url(#p0fe0b106c0)" d="
M530.781 98.392
L529.475 109.496
L521.375 101.788
L530.781 98.392
z
" style="fill:#008080;stroke:#008080;stroke-linecap:round;stroke-width:2.0;"/>
   </g>
   <g id="patch_15">
    <path clip-path="url(#p0fe0b106c0)" d="
M347.915 28.8967
Q324.311 46.2387 302.508 62.2567" style="fill:none;stroke:#008080;stroke-linecap:round;stroke-width:2.0;"/>
    <path clip-path="url(#p0fe0b106c0)" d="
M313.528 60.3654
L302.508 62.2567
L307.607 52.3065
L313.528 60.3654
z
" style="fill:#008080;stroke:#008080;stroke-linecap:round;stroke-width:2.0;"/>
   </g>
   <g id="patch_16">
    <path clip-path="url(#p0fe0b106c0)" d="
M432.063 120.876
Q368.589 99.8158 302.993 78.0513" style="fill:none;stroke:#008080;stroke-linecap:round;stroke-width:2.0;"/>
    <path clip-path="url(#p0fe0b106c0)" d="
M424.146 112.981
L432.063 120.876
L420.997 122.473
L424.146 112.981
z
" style="fill:#008080;stroke:#008080;stroke-linecap:round;stroke-width:2.0;"/>
   </g>
   <g id="patch_17">
    <path clip-path="url(#p0fe0b106c0)" d="
M51.1105 117.13
Q79.4848 99.8168 109.768 81.339" style="fill:none;stroke:#008080;stroke-linecap:round;stroke-width:2.0;"/>
    <path clip-path="url(#p0fe0b106c0)" d="
M62.2512 116.189
L51.1105 117.13
L57.0426 107.653
L62.2512 116.189
z
" style="fill:#008080;stroke:#008080;stroke-linecap:round;stroke-width:2.0;"/>
   </g>
   <g id="patch_18">
    <path clip-path="url(#p0fe0b106c0)" d="
M499.105 67.1012
Q438.543 46.2378 375.867 24.6462" style="fill:none;stroke:#008080;stroke-linecap:round;stroke-width:2.0;"/>
    <path clip-path="url(#p0fe0b106c0)" d="
M491.279 59.1167
L499.105 67.1012
L488.021 68.5714
L491.279 59.1167
z
" style="fill:#008080;stroke:#008080;stroke-linecap:round;stroke-width:2.0;"/>
   </g>
   <g id="patch_19">
    <path clip-path="url(#p0fe0b106c0)" d="
M344.039 226.634
Q297.896 206.975 249.696 186.44" style="fill:none;stroke:#008080;stroke-linecap:round;stroke-width:2.0;"/>
    <path clip-path="url(#p0fe0b106c0)" d="
M336.799 218.114
L344.039 226.634
L332.88 227.314
L336.799 218.114
z
" style="fill:#008080;stroke:#008080;stroke-linecap:round;stroke-width:2.0;"/>
   </g>
   <g id="patch_20">
    <path clip-path="url(#p0fe0b106c0)" d="
M218.534 172.48
Q177.713 153.395 134.867 133.363" style="fill:none;stroke:#008080;stroke-linecap:round;stroke-width:2.0;"/>
    <path clip-path="url(#p0fe0b106c0)" d="
M211.593 163.715
L218.534 172.48
L207.358 172.774
L211.593 163.715
z
" style="fill:#008080;stroke:#008080;stroke-linecap:round;stroke-width:2.0;"/>
   </g>
   <g id="patch_21">
    <path clip-path="url(#p0fe0b106c0)" d="
M360.777 215.573
Q360.777 180.186 360.777 142.563" style="fill:none;stroke:#d3d3d3;stroke-linecap:round;stroke-width:2.0;"/>
    <path clip-path="url(#p0fe0b106c0)" d="
M365.777 205.573
L360.777 215.573
L355.777 205.573
L365.777 205.573
z
" style="fill:#d3d3d3;stroke:#d3d3d3;stroke-linecap:round;stroke-width:2.0;"/>
   </g>
   <g id="patch_22">
    <path clip-path="url(#p0fe0b106c0)" d="
M420.426 62.3951
Q397.986 46.2379 373.73 28.7742" style="fill:none;stroke:#008080;stroke-linecap:round;stroke-width:2.0;"/>
    <path clip-path="url(#p0fe0b106c0)" d="
M415.232 52.4944
L420.426 62.3951
L409.389 60.6097
L415.232 52.4944
z
" style="fill:#008080;stroke:#008080;stroke-linecap:round;stroke-width:2.0;"/>
   </g>
   <g id="patch_23">
    <path clip-path="url(#p0fe0b106c0)" d="
M278.868 108.952
Q281.152 99.8144 283.979 88.5073" style="fill:none;stroke:#008080;stroke-linecap:round;stroke-width:2.0;"/>
    <path clip-path="url(#p0fe0b106c0)" d="
M286.144 100.463
L278.868 108.952
L276.443 98.038
L286.144 100.463
z
" style="fill:#008080;stroke:#008080;stroke-linecap:round;stroke-width:2.0;"/>
   </g>
   <g id="patch_24">
    <path clip-path="url(#p0fe0b106c0)" d="
M517.87 122.761
Q411.753 99.8166 303.45 76.3998" style="fill:none;stroke:#008080;stroke-linecap:round;stroke-width:2.0;"/>
    <path clip-path="url(#p0fe0b106c0)" d="
M509.153 115.761
L517.87 122.761
L507.039 125.535
L509.153 115.761
z
" style="fill:#008080;stroke:#008080;stroke-linecap:round;stroke-width:2.0;"/>
   </g>
   <g id="patch_25">
    <path clip-path="url(#p0fe0b106c0)" d="
M346.113 115.833
Q324.311 99.8146 300.706 82.4727" style="fill:none;stroke:#008080;stroke-linecap:round;stroke-width:2.0;"/>
    <path clip-path="url(#p0fe0b106c0)" d="
M341.015 105.883
L346.113 115.833
L335.094 113.941
L341.015 105.883
z
" style="fill:#008080;stroke:#008080;stroke-linecap:round;stroke-width:2.0;"/>
   </g>
   <g id="patch_26">
    <path clip-path="url(#p0fe0b106c0)" d="
M444.688 109.012
Q442.261 99.8139 439.263 88.4541" style="fill:none;stroke:#008080;stroke-linecap:round;stroke-width:2.0;"/>
    <path clip-path="url(#p0fe0b106c0)" d="
M446.971 98.0669
L444.688 109.012
L437.302 100.618
L446.971 98.0669
z
" style="fill:#008080;stroke:#008080;stroke-linecap:round;stroke-width:2.0;"/>
   </g>
   <g id="matplotlib.axis_1"/>
   <g id="matplotlib.axis_2"/>
   <g id="PathCollection_1">
    <defs>
     <path d="
M-7.07107 -12.2474
L-14.1421 -6.28037e-15
L-7.07107 12.2474
L7.07107 12.2474
L14.1421 8.63551e-15
L7.07107 -12.2474
z
" id="C0_0_ff82a26696"/>
    </defs>
    <use style="fill:#ffffff;stroke:#000000;" x="435.192157062" xlink:href="#C0_0_ff82a26696" y="73.0266694931"/>
    <use style="fill:#ffffff;stroke:#000000;" x="360.776572646" xlink:href="#C0_0_ff82a26696" y="73.0266694931"/>
    <use style="fill:#ffffff;stroke:#000000;" x="516.305144075" xlink:href="#C0_0_ff82a26696" y="73.0266694931"/>
    <use style="fill:#ffffff;stroke:#000000;" x="123.39085836" xlink:href="#C0_0_ff82a26696" y="73.0266694931"/>
    <use style="fill:#ffffff;stroke:#000000;" x="120.414234984" xlink:href="#C0_0_ff82a26696" y="126.605890272"/>
    <use style="fill:#ffffff;stroke:#000000;" x="195.573975244" xlink:href="#C0_0_ff82a26696" y="126.605890272"/>
    <use style="fill:#ffffff;stroke:#000000;" x="274.454494724" xlink:href="#C0_0_ff82a26696" y="126.605890272"/>
    <use style="fill:#ffffff;stroke:#000000;" x="449.331118101" xlink:href="#C0_0_ff82a26696" y="126.605890272"/>
    <use style="fill:#ffffff;stroke:#000000;" x="535.653196023" xlink:href="#C0_0_ff82a26696" y="126.605890272"/>
    <use style="fill:#ffffff;stroke:#000000;" x="360.776572646" xlink:href="#C0_0_ff82a26696" y="126.605890272"/>
    <use style="fill:#ffffff;stroke:#000000;" x="35.58046875" xlink:href="#C0_0_ff82a26696" y="126.605890272"/>
    <use style="fill:#90ee90;stroke:#000000;" x="360.776572646" xlink:href="#C0_0_ff82a26696" y="19.4474487139"/>
    <use style="fill:#90ee90;stroke:#000000;" x="287.849299919" xlink:href="#C0_0_ff82a26696" y="73.0266694931"/>
    <use style="fill:#90ee90;stroke:#000000;" x="235.014234984" xlink:href="#C0_0_ff82a26696" y="180.185111052"/>
    <use style="fill:#90ee90;stroke:#000000;" x="360.776572646" xlink:href="#C0_0_ff82a26696" y="233.764331831"/>
   </g>
   <g id="text_1">
    <!-- .       SL(2,3)       . -->
    <defs>
     <path d="
M19.1875 8.29688
L53.6094 8.29688
L53.6094 0
L7.32812 0
L7.32812 8.29688
Q12.9375 14.1094 22.625 23.8906
Q32.3281 33.6875 34.8125 36.5312
Q39.5469 41.8438 41.4219 45.5312
Q43.3125 49.2188 43.3125 52.7812
Q43.3125 58.5938 39.2344 62.25
Q35.1562 65.9219 28.6094 65.9219
Q23.9688 65.9219 18.8125 64.3125
Q13.6719 62.7031 7.8125 59.4219
L7.8125 69.3906
Q13.7656 71.7812 18.9375 73
Q24.125 74.2188 28.4219 74.2188
Q39.75 74.2188 46.4844 68.5469
Q53.2188 62.8906 53.2188 53.4219
Q53.2188 48.9219 51.5312 44.8906
Q49.8594 40.875 45.4062 35.4062
Q44.1875 33.9844 37.6406 27.2188
Q31.1094 20.4531 19.1875 8.29688" id="BitstreamVeraSans-Roman-32"/>
     <path id="BitstreamVeraSans-Roman-20"/>
     <path d="
M9.8125 72.9062
L19.6719 72.9062
L19.6719 8.29688
L55.1719 8.29688
L55.1719 0
L9.8125 0
z
" id="BitstreamVeraSans-Roman-4c"/>
     <path d="
M40.5781 39.3125
Q47.6562 37.7969 51.625 33
Q55.6094 28.2188 55.6094 21.1875
Q55.6094 10.4062 48.1875 4.48438
Q40.7656 -1.42188 27.0938 -1.42188
Q22.5156 -1.42188 17.6562 -0.515625
Q12.7969 0.390625 7.625 2.20312
L7.625 11.7188
Q11.7188 9.32812 16.5938 8.10938
Q21.4844 6.89062 26.8125 6.89062
Q36.0781 6.89062 40.9375 10.5469
Q45.7969 14.2031 45.7969 21.1875
Q45.7969 27.6406 41.2812 31.2656
Q36.7656 34.9062 28.7188 34.9062
L20.2188 34.9062
L20.2188 43.0156
L29.1094 43.0156
Q36.375 43.0156 40.2344 45.9219
Q44.0938 48.8281 44.0938 54.2969
Q44.0938 59.9062 40.1094 62.9062
Q36.1406 65.9219 28.7188 65.9219
Q24.6562 65.9219 20.0156 65.0312
Q15.375 64.1562 9.8125 62.3125
L9.8125 71.0938
Q15.4375 72.6562 20.3438 73.4375
Q25.25 74.2188 29.5938 74.2188
Q40.8281 74.2188 47.3594 69.1094
Q53.9062 64.0156 53.9062 55.3281
Q53.9062 49.2656 50.4375 45.0938
Q46.9688 40.9219 40.5781 39.3125" id="BitstreamVeraSans-Roman-33"/>
     <path d="
M8.01562 75.875
L15.8281 75.875
Q23.1406 64.3594 26.7812 53.3125
Q30.4219 42.2812 30.4219 31.3906
Q30.4219 20.4531 26.7812 9.375
Q23.1406 -1.70312 15.8281 -13.1875
L8.01562 -13.1875
Q14.5 -2 17.7031 9.0625
Q20.9062 20.125 20.9062 31.3906
Q20.9062 42.6719 17.7031 53.6562
Q14.5 64.6562 8.01562 75.875" id="BitstreamVeraSans-Roman-29"/>
     <path d="
M31 75.875
Q24.4688 64.6562 21.2812 53.6562
Q18.1094 42.6719 18.1094 31.3906
Q18.1094 20.125 21.3125 9.0625
Q24.5156 -2 31 -13.1875
L23.1875 -13.1875
Q15.875 -1.70312 12.2344 9.375
Q8.59375 20.4531 8.59375 31.3906
Q8.59375 42.2812 12.2031 53.3125
Q15.8281 64.3594 23.1875 75.875
z
" id="BitstreamVeraSans-Roman-28"/>
     <path d="
M11.7188 12.4062
L22.0156 12.4062
L22.0156 4
L14.0156 -11.625
L7.71875 -11.625
L11.7188 4
z
" id="BitstreamVeraSans-Roman-2c"/>
     <path d="
M53.5156 70.5156
L53.5156 60.8906
Q47.9062 63.5781 42.9219 64.8906
Q37.9375 66.2188 33.2969 66.2188
Q25.25 66.2188 20.875 63.0938
Q16.5 59.9688 16.5 54.2031
Q16.5 49.3594 19.4062 46.8906
Q22.3125 44.4375 30.4219 42.9219
L36.375 41.7031
Q47.4062 39.5938 52.6562 34.2969
Q57.9062 29 57.9062 20.125
Q57.9062 9.51562 50.7969 4.04688
Q43.7031 -1.42188 29.9844 -1.42188
Q24.8125 -1.42188 18.9688 -0.25
Q13.1406 0.921875 6.89062 3.21875
L6.89062 13.375
Q12.8906 10.0156 18.6562 8.29688
Q24.4219 6.59375 29.9844 6.59375
Q38.4219 6.59375 43.0156 9.90625
Q47.6094 13.2344 47.6094 19.3906
Q47.6094 24.75 44.3125 27.7812
Q41.0156 30.8125 33.5 32.3281
L27.4844 33.5
Q16.4531 35.6875 11.5156 40.375
Q6.59375 45.0625 6.59375 53.4219
Q6.59375 63.0938 13.4062 68.6562
Q20.2188 74.2188 32.1719 74.2188
Q37.3125 74.2188 42.625 73.2812
Q47.9531 72.3594 53.5156 70.5156" id="BitstreamVeraSans-Roman-53"/>
     <path d="
M10.6875 12.4062
L21 12.4062
L21 0
L10.6875 0
z
" id="BitstreamVeraSans-Roman-2e"/>
    </defs>
    <g transform="translate(318.077353896 236.523706831)scale(0.1 -0.1)">
     <use xlink:href="#BitstreamVeraSans-Roman-2e"/>
     <use x="31.787109375" xlink:href="#BitstreamVeraSans-Roman-20"/>
     <use x="63.57421875" xlink:href="#BitstreamVeraSans-Roman-20"/>
     <use x="95.361328125" xlink:href="#BitstreamVeraSans-Roman-20"/>
     <use x="127.1484375" xlink:href="#BitstreamVeraSans-Roman-20"/>
     <use x="158.935546875" xlink:href="#BitstreamVeraSans-Roman-20"/>
     <use x="190.72265625" xlink:href="#BitstreamVeraSans-Roman-20"/>
     <use x="222.509765625" xlink:href="#BitstreamVeraSans-Roman-20"/>
     <use x="254.296875" xlink:href="#BitstreamVeraSans-Roman-53"/>
     <use x="317.7734375" xlink:href="#BitstreamVeraSans-Roman-4c"/>
     <use x="373.486328125" xlink:href="#BitstreamVeraSans-Roman-28"/>
     <use x="412.5" xlink:href="#BitstreamVeraSans-Roman-32"/>
     <use x="476.123046875" xlink:href="#BitstreamVeraSans-Roman-2c"/>
     <use x="507.91015625" xlink:href="#BitstreamVeraSans-Roman-33"/>
     <use x="571.533203125" xlink:href="#BitstreamVeraSans-Roman-29"/>
     <use x="610.546875" xlink:href="#BitstreamVeraSans-Roman-20"/>
     <use x="642.333984375" xlink:href="#BitstreamVeraSans-Roman-20"/>
     <use x="674.12109375" xlink:href="#BitstreamVeraSans-Roman-20"/>
     <use x="705.908203125" xlink:href="#BitstreamVeraSans-Roman-20"/>
     <use x="737.6953125" xlink:href="#BitstreamVeraSans-Roman-20"/>
     <use x="769.482421875" xlink:href="#BitstreamVeraSans-Roman-20"/>
     <use x="801.26953125" xlink:href="#BitstreamVeraSans-Roman-20"/>
     <use x="833.056640625" xlink:href="#BitstreamVeraSans-Roman-2e"/>
    </g>
   </g>
   <g id="text_2">
    <!-- .      C6      . -->
    <defs>
     <path d="
M33.0156 40.375
Q26.375 40.375 22.4844 35.8281
Q18.6094 31.2969 18.6094 23.3906
Q18.6094 15.5312 22.4844 10.9531
Q26.375 6.39062 33.0156 6.39062
Q39.6562 6.39062 43.5312 10.9531
Q47.4062 15.5312 47.4062 23.3906
Q47.4062 31.2969 43.5312 35.8281
Q39.6562 40.375 33.0156 40.375
M52.5938 71.2969
L52.5938 62.3125
Q48.875 64.0625 45.0938 64.9844
Q41.3125 65.9219 37.5938 65.9219
Q27.8281 65.9219 22.6719 59.3281
Q17.5312 52.7344 16.7969 39.4062
Q19.6719 43.6562 24.0156 45.9219
Q28.375 48.1875 33.5938 48.1875
Q44.5781 48.1875 50.9531 41.5156
Q57.3281 34.8594 57.3281 23.3906
Q57.3281 12.1562 50.6875 5.35938
Q44.0469 -1.42188 33.0156 -1.42188
Q20.3594 -1.42188 13.6719 8.26562
Q6.98438 17.9688 6.98438 36.375
Q6.98438 53.6562 15.1875 63.9375
Q23.3906 74.2188 37.2031 74.2188
Q40.9219 74.2188 44.7031 73.4844
Q48.4844 72.75 52.5938 71.2969" id="BitstreamVeraSans-Roman-36"/>
     <path d="
M64.4062 67.2812
L64.4062 56.8906
Q59.4219 61.5312 53.7812 63.8125
Q48.1406 66.1094 41.7969 66.1094
Q29.2969 66.1094 22.6562 58.4688
Q16.0156 50.8281 16.0156 36.375
Q16.0156 21.9688 22.6562 14.3281
Q29.2969 6.6875 41.7969 6.6875
Q48.1406 6.6875 53.7812 8.98438
Q59.4219 11.2812 64.4062 15.9219
L64.4062 5.60938
Q59.2344 2.09375 53.4375 0.328125
Q47.6562 -1.42188 41.2188 -1.42188
Q24.6562 -1.42188 15.125 8.70312
Q5.60938 18.8438 5.60938 36.375
Q5.60938 53.9531 15.125 64.0781
Q24.6562 74.2188 41.2188 74.2188
Q47.75 74.2188 53.5312 72.4844
Q59.3281 70.75 64.4062 67.2812" id="BitstreamVeraSans-Roman-43"/>
    </defs>
    <g transform="translate(7.2 129.365265272)scale(0.1 -0.1)">
     <use xlink:href="#BitstreamVeraSans-Roman-2e"/>
     <use x="31.787109375" xlink:href="#BitstreamVeraSans-Roman-20"/>
     <use x="63.57421875" xlink:href="#BitstreamVeraSans-Roman-20"/>
     <use x="95.361328125" xlink:href="#BitstreamVeraSans-Roman-20"/>
     <use x="127.1484375" xlink:href="#BitstreamVeraSans-Roman-20"/>
     <use x="158.935546875" xlink:href="#BitstreamVeraSans-Roman-20"/>
     <use x="190.72265625" xlink:href="#BitstreamVeraSans-Roman-20"/>
     <use x="222.509765625" xlink:href="#BitstreamVeraSans-Roman-43"/>
     <use x="292.333984375" xlink:href="#BitstreamVeraSans-Roman-36"/>
     <use x="355.95703125" xlink:href="#BitstreamVeraSans-Roman-20"/>
     <use x="387.744140625" xlink:href="#BitstreamVeraSans-Roman-20"/>
     <use x="419.53125" xlink:href="#BitstreamVeraSans-Roman-20"/>
     <use x="451.318359375" xlink:href="#BitstreamVeraSans-Roman-20"/>
     <use x="483.10546875" xlink:href="#BitstreamVeraSans-Roman-20"/>
     <use x="514.892578125" xlink:href="#BitstreamVeraSans-Roman-20"/>
     <use x="546.6796875" xlink:href="#BitstreamVeraSans-Roman-2e"/>
    </g>
   </g>
   <g id="text_3">
    <!-- .      Q8       . -->
    <defs>
     <path d="
M39.4062 66.2188
Q28.6562 66.2188 22.3281 58.2031
Q16.0156 50.2031 16.0156 36.375
Q16.0156 22.6094 22.3281 14.5938
Q28.6562 6.59375 39.4062 6.59375
Q50.1406 6.59375 56.4219 14.5938
Q62.7031 22.6094 62.7031 36.375
Q62.7031 50.2031 56.4219 58.2031
Q50.1406 66.2188 39.4062 66.2188
M53.2188 1.3125
L66.2188 -12.8906
L54.2969 -12.8906
L43.5 -1.21875
Q41.8906 -1.3125 41.0312 -1.35938
Q40.1875 -1.42188 39.4062 -1.42188
Q24.0312 -1.42188 14.8125 8.85938
Q5.60938 19.1406 5.60938 36.375
Q5.60938 53.6562 14.8125 63.9375
Q24.0312 74.2188 39.4062 74.2188
Q54.7344 74.2188 63.9062 63.9375
Q73.0938 53.6562 73.0938 36.375
Q73.0938 23.6875 67.9844 14.6406
Q62.8906 5.60938 53.2188 1.3125" id="BitstreamVeraSans-Roman-51"/>
     <path d="
M31.7812 34.625
Q24.75 34.625 20.7188 30.8594
Q16.7031 27.0938 16.7031 20.5156
Q16.7031 13.9219 20.7188 10.1562
Q24.75 6.39062 31.7812 6.39062
Q38.8125 6.39062 42.8594 10.1719
Q46.9219 13.9688 46.9219 20.5156
Q46.9219 27.0938 42.8906 30.8594
Q38.875 34.625 31.7812 34.625
M21.9219 38.8125
Q15.5781 40.375 12.0312 44.7188
Q8.5 49.0781 8.5 55.3281
Q8.5 64.0625 14.7188 69.1406
Q20.9531 74.2188 31.7812 74.2188
Q42.6719 74.2188 48.875 69.1406
Q55.0781 64.0625 55.0781 55.3281
Q55.0781 49.0781 51.5312 44.7188
Q48 40.375 41.7031 38.8125
Q48.8281 37.1562 52.7969 32.3125
Q56.7812 27.4844 56.7812 20.5156
Q56.7812 9.90625 50.3125 4.23438
Q43.8438 -1.42188 31.7812 -1.42188
Q19.7344 -1.42188 13.25 4.23438
Q6.78125 9.90625 6.78125 20.5156
Q6.78125 27.4844 10.7812 32.3125
Q14.7969 37.1562 21.9219 38.8125
M18.3125 54.3906
Q18.3125 48.7344 21.8438 45.5625
Q25.3906 42.3906 31.7812 42.3906
Q38.1406 42.3906 41.7188 45.5625
Q45.3125 48.7344 45.3125 54.3906
Q45.3125 60.0625 41.7188 63.2344
Q38.1406 66.4062 31.7812 66.4062
Q25.3906 66.4062 21.8438 63.2344
Q18.3125 60.0625 18.3125 54.3906" id="BitstreamVeraSans-Roman-38"/>
    </defs>
    <g transform="translate(204.600172484 182.944486052)scale(0.1 -0.1)">
     <use xlink:href="#BitstreamVeraSans-Roman-2e"/>
     <use x="31.787109375" xlink:href="#BitstreamVeraSans-Roman-20"/>
     <use x="63.57421875" xlink:href="#BitstreamVeraSans-Roman-20"/>
     <use x="95.361328125" xlink:href="#BitstreamVeraSans-Roman-20"/>
     <use x="127.1484375" xlink:href="#BitstreamVeraSans-Roman-20"/>
     <use x="158.935546875" xlink:href="#BitstreamVeraSans-Roman-20"/>
     <use x="190.72265625" xlink:href="#BitstreamVeraSans-Roman-20"/>
     <use x="222.509765625" xlink:href="#BitstreamVeraSans-Roman-51"/>
     <use x="301.220703125" xlink:href="#BitstreamVeraSans-Roman-38"/>
     <use x="364.84375" xlink:href="#BitstreamVeraSans-Roman-20"/>
     <use x="396.630859375" xlink:href="#BitstreamVeraSans-Roman-20"/>
     <use x="428.41796875" xlink:href="#BitstreamVeraSans-Roman-20"/>
     <use x="460.205078125" xlink:href="#BitstreamVeraSans-Roman-20"/>
     <use x="491.9921875" xlink:href="#BitstreamVeraSans-Roman-20"/>
     <use x="523.779296875" xlink:href="#BitstreamVeraSans-Roman-20"/>
     <use x="555.56640625" xlink:href="#BitstreamVeraSans-Roman-20"/>
     <use x="587.353515625" xlink:href="#BitstreamVeraSans-Roman-2e"/>
    </g>
   </g>
   <g id="text_4">
    <!-- .     C6      . -->
    <g transform="translate(333.985166396 129.365265272)scale(0.1 -0.1)">
     <use xlink:href="#BitstreamVeraSans-Roman-2e"/>
     <use x="31.787109375" xlink:href="#BitstreamVeraSans-Roman-20"/>
     <use x="63.57421875" xlink:href="#BitstreamVeraSans-Roman-20"/>
     <use x="95.361328125" xlink:href="#BitstreamVeraSans-Roman-20"/>
     <use x="127.1484375" xlink:href="#BitstreamVeraSans-Roman-20"/>
     <use x="158.935546875" xlink:href="#BitstreamVeraSans-Roman-20"/>
     <use x="190.72265625" xlink:href="#BitstreamVeraSans-Roman-43"/>
     <use x="260.546875" xlink:href="#BitstreamVeraSans-Roman-36"/>
     <use x="324.169921875" xlink:href="#BitstreamVeraSans-Roman-20"/>
     <use x="355.95703125" xlink:href="#BitstreamVeraSans-Roman-20"/>
     <use x="387.744140625" xlink:href="#BitstreamVeraSans-Roman-20"/>
     <use x="419.53125" xlink:href="#BitstreamVeraSans-Roman-20"/>
     <use x="451.318359375" xlink:href="#BitstreamVeraSans-Roman-20"/>
     <use x="483.10546875" xlink:href="#BitstreamVeraSans-Roman-20"/>
     <use x="514.892578125" xlink:href="#BitstreamVeraSans-Roman-2e"/>
    </g>
   </g>
   <g id="text_5">
    <!-- .     C6     . -->
    <g transform="translate(510.450852273 129.365265272)scale(0.1 -0.1)">
     <use xlink:href="#BitstreamVeraSans-Roman-2e"/>
     <use x="31.787109375" xlink:href="#BitstreamVeraSans-Roman-20"/>
     <use x="63.57421875" xlink:href="#BitstreamVeraSans-Roman-20"/>
     <use x="95.361328125" xlink:href="#BitstreamVeraSans-Roman-20"/>
     <use x="127.1484375" xlink:href="#BitstreamVeraSans-Roman-20"/>
     <use x="158.935546875" xlink:href="#BitstreamVeraSans-Roman-20"/>
     <use x="190.72265625" xlink:href="#BitstreamVeraSans-Roman-43"/>
     <use x="260.546875" xlink:href="#BitstreamVeraSans-Roman-36"/>
     <use x="324.169921875" xlink:href="#BitstreamVeraSans-Roman-20"/>
     <use x="355.95703125" xlink:href="#BitstreamVeraSans-Roman-20"/>
     <use x="387.744140625" xlink:href="#BitstreamVeraSans-Roman-20"/>
     <use x="419.53125" xlink:href="#BitstreamVeraSans-Roman-20"/>
     <use x="451.318359375" xlink:href="#BitstreamVeraSans-Roman-20"/>
     <use x="483.10546875" xlink:href="#BitstreamVeraSans-Roman-2e"/>
    </g>
   </g>
   <g id="text_6">
    <!-- .    C4    . -->
    <defs>
     <path d="
M37.7969 64.3125
L12.8906 25.3906
L37.7969 25.3906
z

M35.2031 72.9062
L47.6094 72.9062
L47.6094 25.3906
L58.0156 25.3906
L58.0156 17.1875
L47.6094 17.1875
L47.6094 0
L37.7969 0
L37.7969 17.1875
L4.89062 17.1875
L4.89062 26.7031
z
" id="BitstreamVeraSans-Roman-34"/>
    </defs>
    <g transform="translate(252.430275974 129.365265272)scale(0.1 -0.1)">
     <use xlink:href="#BitstreamVeraSans-Roman-2e"/>
     <use x="31.787109375" xlink:href="#BitstreamVeraSans-Roman-20"/>
     <use x="63.57421875" xlink:href="#BitstreamVeraSans-Roman-20"/>
     <use x="95.361328125" xlink:href="#BitstreamVeraSans-Roman-20"/>
     <use x="127.1484375" xlink:href="#BitstreamVeraSans-Roman-20"/>
     <use x="158.935546875" xlink:href="#BitstreamVeraSans-Roman-43"/>
     <use x="228.759765625" xlink:href="#BitstreamVeraSans-Roman-34"/>
     <use x="292.3828125" xlink:href="#BitstreamVeraSans-Roman-20"/>
     <use x="324.169921875" xlink:href="#BitstreamVeraSans-Roman-20"/>
     <use x="355.95703125" xlink:href="#BitstreamVeraSans-Roman-20"/>
     <use x="387.744140625" xlink:href="#BitstreamVeraSans-Roman-20"/>
     <use x="419.53125" xlink:href="#BitstreamVeraSans-Roman-2e"/>
    </g>
   </g>
   <g id="text_7">
    <!-- .    C6     . -->
    <g transform="translate(425.717836851 129.365265272)scale(0.1 -0.1)">
     <use xlink:href="#BitstreamVeraSans-Roman-2e"/>
     <use x="31.787109375" xlink:href="#BitstreamVeraSans-Roman-20"/>
     <use x="63.57421875" xlink:href="#BitstreamVeraSans-Roman-20"/>
     <use x="95.361328125" xlink:href="#BitstreamVeraSans-Roman-20"/>
     <use x="127.1484375" xlink:href="#BitstreamVeraSans-Roman-20"/>
     <use x="158.935546875" xlink:href="#BitstreamVeraSans-Roman-43"/>
     <use x="228.759765625" xlink:href="#BitstreamVeraSans-Roman-36"/>
     <use x="292.3828125" xlink:href="#BitstreamVeraSans-Roman-20"/>
     <use x="324.169921875" xlink:href="#BitstreamVeraSans-Roman-20"/>
     <use x="355.95703125" xlink:href="#BitstreamVeraSans-Roman-20"/>
     <use x="387.744140625" xlink:href="#BitstreamVeraSans-Roman-20"/>
     <use x="419.53125" xlink:href="#BitstreamVeraSans-Roman-20"/>
     <use x="451.318359375" xlink:href="#BitstreamVeraSans-Roman-2e"/>
    </g>
   </g>
   <g id="text_8">
    <!-- .   C4    . -->
    <g transform="translate(175.138818994 129.365265272)scale(0.1 -0.1)">
     <use xlink:href="#BitstreamVeraSans-Roman-2e"/>
     <use x="31.787109375" xlink:href="#BitstreamVeraSans-Roman-20"/>
     <use x="63.57421875" xlink:href="#BitstreamVeraSans-Roman-20"/>
     <use x="95.361328125" xlink:href="#BitstreamVeraSans-Roman-20"/>
     <use x="127.1484375" xlink:href="#BitstreamVeraSans-Roman-43"/>
     <use x="196.97265625" xlink:href="#BitstreamVeraSans-Roman-34"/>
     <use x="260.595703125" xlink:href="#BitstreamVeraSans-Roman-20"/>
     <use x="292.3828125" xlink:href="#BitstreamVeraSans-Roman-20"/>
     <use x="324.169921875" xlink:href="#BitstreamVeraSans-Roman-20"/>
     <use x="355.95703125" xlink:href="#BitstreamVeraSans-Roman-20"/>
     <use x="387.744140625" xlink:href="#BitstreamVeraSans-Roman-2e"/>
    </g>
   </g>
   <g id="text_9">
    <!-- .   C4   . -->
    <g transform="translate(101.568141234 129.365265272)scale(0.1 -0.1)">
     <use xlink:href="#BitstreamVeraSans-Roman-2e"/>
     <use x="31.787109375" xlink:href="#BitstreamVeraSans-Roman-20"/>
     <use x="63.57421875" xlink:href="#BitstreamVeraSans-Roman-20"/>
     <use x="95.361328125" xlink:href="#BitstreamVeraSans-Roman-20"/>
     <use x="127.1484375" xlink:href="#BitstreamVeraSans-Roman-43"/>
     <use x="196.97265625" xlink:href="#BitstreamVeraSans-Roman-34"/>
     <use x="260.595703125" xlink:href="#BitstreamVeraSans-Roman-20"/>
     <use x="292.3828125" xlink:href="#BitstreamVeraSans-Roman-20"/>
     <use x="324.169921875" xlink:href="#BitstreamVeraSans-Roman-20"/>
     <use x="355.95703125" xlink:href="#BitstreamVeraSans-Roman-2e"/>
    </g>
   </g>
   <g id="text_10">
    <!-- .  C3   . -->
    <g transform="translate(106.13382711 75.7860444931)scale(0.1 -0.1)">
     <use xlink:href="#BitstreamVeraSans-Roman-2e"/>
     <use x="31.787109375" xlink:href="#BitstreamVeraSans-Roman-20"/>
     <use x="63.57421875" xlink:href="#BitstreamVeraSans-Roman-20"/>
     <use x="95.361328125" xlink:href="#BitstreamVeraSans-Roman-43"/>
     <use x="165.185546875" xlink:href="#BitstreamVeraSans-Roman-33"/>
     <use x="228.80859375" xlink:href="#BitstreamVeraSans-Roman-20"/>
     <use x="260.595703125" xlink:href="#BitstreamVeraSans-Roman-20"/>
     <use x="292.3828125" xlink:href="#BitstreamVeraSans-Roman-20"/>
     <use x="324.169921875" xlink:href="#BitstreamVeraSans-Roman-2e"/>
    </g>
   </g>
   <g id="text_11">
    <!-- .  C3  . -->
    <g transform="translate(500.637175325 75.7860444931)scale(0.1 -0.1)">
     <use xlink:href="#BitstreamVeraSans-Roman-2e"/>
     <use x="31.787109375" xlink:href="#BitstreamVeraSans-Roman-20"/>
     <use x="63.57421875" xlink:href="#BitstreamVeraSans-Roman-20"/>
     <use x="95.361328125" xlink:href="#BitstreamVeraSans-Roman-43"/>
     <use x="165.185546875" xlink:href="#BitstreamVeraSans-Roman-33"/>
     <use x="228.80859375" xlink:href="#BitstreamVeraSans-Roman-20"/>
     <use x="260.595703125" xlink:href="#BitstreamVeraSans-Roman-20"/>
     <use x="292.3828125" xlink:href="#BitstreamVeraSans-Roman-2e"/>
    </g>
   </g>
   <g id="text_12">
    <!-- . C3  . -->
    <g transform="translate(346.697666396 75.7860444931)scale(0.1 -0.1)">
     <use xlink:href="#BitstreamVeraSans-Roman-2e"/>
     <use x="31.787109375" xlink:href="#BitstreamVeraSans-Roman-20"/>
     <use x="63.57421875" xlink:href="#BitstreamVeraSans-Roman-43"/>
     <use x="133.3984375" xlink:href="#BitstreamVeraSans-Roman-33"/>
     <use x="197.021484375" xlink:href="#BitstreamVeraSans-Roman-20"/>
     <use x="228.80859375" xlink:href="#BitstreamVeraSans-Roman-20"/>
     <use x="260.595703125" xlink:href="#BitstreamVeraSans-Roman-2e"/>
    </g>
   </g>
   <g id="text_13">
    <!-- . C3 . -->
    <g transform="translate(422.702313312 75.7860444931)scale(0.1 -0.1)">
     <use xlink:href="#BitstreamVeraSans-Roman-2e"/>
     <use x="31.787109375" xlink:href="#BitstreamVeraSans-Roman-20"/>
     <use x="63.57421875" xlink:href="#BitstreamVeraSans-Roman-43"/>
     <use x="133.3984375" xlink:href="#BitstreamVeraSans-Roman-33"/>
     <use x="197.021484375" xlink:href="#BitstreamVeraSans-Roman-20"/>
     <use x="228.80859375" xlink:href="#BitstreamVeraSans-Roman-2e"/>
    </g>
   </g>
   <g id="text_14">
    <!-- .1. -->
    <defs>
     <path d="
M12.4062 8.29688
L28.5156 8.29688
L28.5156 63.9219
L10.9844 60.4062
L10.9844 69.3906
L28.4219 72.9062
L38.2812 72.9062
L38.2812 8.29688
L54.3906 8.29688
L54.3906 0
L12.4062 0
z
" id="BitstreamVeraSans-Roman-31"/>
    </defs>
    <g transform="translate(355.490635146 22.2068237139)scale(0.1 -0.1)">
     <use xlink:href="#BitstreamVeraSans-Roman-2e"/>
     <use x="31.787109375" xlink:href="#BitstreamVeraSans-Roman-31"/>
     <use x="95.41015625" xlink:href="#BitstreamVeraSans-Roman-2e"/>
    </g>
   </g>
   <g id="text_15">
    <!-- .C2 . -->
    <g transform="translate(276.948518669 75.7860444931)scale(0.1 -0.1)">
     <use xlink:href="#BitstreamVeraSans-Roman-2e"/>
     <use x="31.787109375" xlink:href="#BitstreamVeraSans-Roman-43"/>
     <use x="101.611328125" xlink:href="#BitstreamVeraSans-Roman-32"/>
     <use x="165.234375" xlink:href="#BitstreamVeraSans-Roman-20"/>
     <use x="197.021484375" xlink:href="#BitstreamVeraSans-Roman-2e"/>
    </g>
   </g>
  </g>
 </g>
 <defs>
  <clipPath id="p0fe0b106c0">
   <rect height="235.748571429" width="550.08" x="10.5768323864" y="8.73160455807"/>
  </clipPath>
 </defs>
</svg>
